<?xml version="1.0" standalone="no"?>
<!DOCTYPE svg PUBLIC "-//W3C//DTD SVG 20010904//EN"
 "http://www.w3.org/TR/2001/REC-SVG-20010904/DTD/svg10.dtd">
<svg version="1.0" xmlns="http://www.w3.org/2000/svg"
 width="960.000000pt" height="960.000000pt" viewBox="0 0 960.000000 960.000000"
 preserveAspectRatio="xMidYMid meet">
<metadata>
Created by potrace 1.11, written by Peter Selinger 2001-2013
</metadata>
<g transform="translate(0.000000,960.000000) scale(0.100000,-0.100000)"
fill="#000000" stroke="none">
<path d="M4076 9589 c3 -5 -16 -9 -43 -9 -44 -1 -47 -2 -29 -15 20 -15 20 -15
0 -16 -10 -1 -22 -1 -26 0 -5 0 -8 -3 -8 -8 0 -14 -39 -20 -43 -7 -3 7 -13 3
-28 -11 -13 -12 -33 -21 -44 -19 -10 2 -28 -5 -39 -16 -25 -23 -55 -26 -36 -3
9 10 9 15 1 15 -12 0 -14 -11 -11 -47 1 -15 -3 -21 -12 -19 -7 2 -26 7 -43 11
-26 6 -28 5 -12 -7 16 -12 15 -13 -7 -13 -13 0 -22 3 -20 6 2 4 -3 12 -10 19
-16 12 -56 -2 -56 -20 0 -5 -7 -7 -15 -4 -8 4 -17 -1 -21 -10 -3 -9 -13 -16
-22 -16 -12 0 -13 -3 -4 -12 9 -9 16 -8 29 4 10 8 28 21 41 27 18 10 22 9 22
-4 0 -8 -5 -15 -10 -15 -10 0 -22 -8 -56 -39 -12 -10 -21 -11 -39 -3 -19 9
-28 7 -49 -13 -17 -16 -23 -29 -19 -45 7 -25 -17 -47 -29 -27 -5 8 -8 7 -8 -4
0 -19 -24 -42 -33 -32 -4 3 -2 12 5 20 16 20 6 24 -30 11 -30 -12 -46 -48 -22
-48 6 0 10 7 10 15 0 20 16 19 24 -1 10 -26 7 -32 -20 -38 -18 -5 -30 -2 -38
8 -9 13 -17 11 -58 -19 -26 -19 -57 -53 -68 -75 -11 -22 -26 -39 -33 -37 -7 1
-11 -8 -11 -20 2 -25 -6 -29 -24 -11 -14 14 -46 -8 -38 -28 2 -7 -4 -20 -14
-29 -11 -10 -22 -26 -25 -36 -4 -11 -11 -16 -17 -13 -7 5 -9 1 -5 -9 3 -9 3
-16 -1 -15 -13 5 -72 -46 -72 -62 0 -8 -16 -24 -35 -34 -19 -11 -35 -25 -35
-33 0 -7 -7 -16 -15 -19 -8 -4 -13 -10 -10 -14 3 -5 -6 -21 -20 -36 -14 -15
-25 -33 -25 -40 0 -8 -5 -14 -11 -14 -7 0 -9 -10 -5 -27 5 -20 4 -24 -3 -13
-8 12 -13 12 -23 2 -6 -6 -9 -12 -5 -12 3 0 -4 -11 -16 -24 -31 -34 -68 -96
-62 -106 3 -4 -7 -11 -20 -14 -15 -4 -23 -11 -19 -17 4 -6 3 -14 -2 -18 -5 -3
-15 -19 -23 -36 -12 -28 -14 -29 -21 -9 -11 28 10 93 32 100 19 6 24 39 8 49
-5 3 -10 1 -10 -5 0 -6 -4 -8 -10 -5 -5 3 -10 1 -10 -6 0 -7 -6 -20 -14 -28
-8 -9 -39 -65 -69 -124 -44 -86 -57 -104 -62 -88 -6 20 -25 30 -25 13 0 -10
31 -55 44 -64 8 -6 7 -11 -2 -16 -7 -5 -10 -16 -6 -25 3 -10 1 -24 -6 -32 -7
-8 -10 -22 -6 -30 4 -10 -1 -15 -16 -15 -21 0 -22 10 -2 110 2 14 -5 3 -16
-25 -11 -27 -29 -67 -40 -88 -11 -22 -20 -46 -20 -56 0 -9 -9 -25 -21 -34 -17
-15 -26 -16 -52 -8 -17 6 -28 9 -25 6 10 -10 -19 -100 -31 -97 -10 2 -15 -23
-12 -60 1 -10 -3 -18 -9 -18 -6 0 -8 -5 -4 -11 6 -11 -23 -78 -39 -90 -5 -3
-8 -9 -8 -13 1 -3 1 -16 1 -28 0 -17 -3 -19 -9 -9 -9 14 -19 -2 -55 -93 -19
-47 -19 -46 -1 -46 17 0 18 -14 5 -45 -8 -18 -9 -18 -9 5 -2 42 -21 7 -28 -50
-4 -39 -3 -51 5 -46 7 4 12 2 12 -3 0 -6 -5 -11 -11 -11 -5 0 -8 -4 -5 -9 3
-5 -2 -12 -11 -15 -12 -5 -14 -9 -5 -18 7 -7 12 -23 11 -37 0 -15 -3 -20 -6
-13 -4 10 -8 9 -19 -5 -12 -17 -13 -16 -14 12 -1 25 -2 27 -11 13 -16 -28 -51
-170 -50 -201 1 -16 -3 -26 -8 -23 -8 5 -24 -47 -37 -119 -2 -11 -10 -40 -19
-64 -10 -29 -14 -58 -9 -86 4 -27 2 -45 -5 -49 -6 -4 -11 -2 -11 5 0 7 -3 9
-6 6 -4 -4 -1 -13 5 -21 7 -8 10 -19 8 -24 -3 -4 -2 -14 3 -22 5 -9 5 -19 -2
-27 -6 -8 -8 -16 -5 -20 4 -3 0 -18 -7 -32 -22 -43 -35 -92 -29 -107 6 -17
-14 -128 -29 -160 -5 -11 -8 -24 -7 -30 1 -5 1 -21 0 -36 -1 -20 -5 -26 -16
-22 -11 5 -15 -1 -15 -26 0 -18 4 -29 10 -25 13 8 12 5 -1 -34 -6 -17 -17 -31
-25 -31 -8 0 -14 -5 -14 -11 0 -5 -4 -7 -10 -4 -6 4 -10 -19 -10 -61 0 -58 2
-65 15 -54 21 17 28 8 16 -21 -5 -13 -10 -19 -11 -14 -1 6 -5 1 -10 -10 -13
-29 -12 -73 2 -95 10 -15 9 -22 -4 -37 -32 -36 -39 -61 -26 -83 10 -16 10 -24
0 -40 -6 -11 -12 -28 -12 -38 0 -10 -3 -22 -7 -26 -10 -10 -14 -32 -19 -125
-3 -46 -12 -97 -20 -112 -8 -15 -14 -37 -14 -48 0 -13 -5 -18 -14 -15 -20 8
-26 -20 -11 -50 11 -22 11 -30 0 -53 -12 -25 -13 -88 -4 -238 0 -5 -2 -62 -4
-125 -2 -70 0 -123 7 -135 6 -11 10 -23 11 -27 0 -3 3 -10 8 -14 11 -11 9 -44
-3 -44 -13 0 -13 -37 0 -45 6 -3 10 -30 10 -60 0 -30 5 -66 11 -82 6 -15 11
-48 11 -73 0 -25 5 -51 11 -58 6 -7 12 -47 13 -88 3 -81 23 -141 24 -71 0 39
-17 171 -26 197 -6 17 -2 26 9 23 4 -2 7 27 7 63 0 36 -4 63 -8 60 -5 -3 -5
18 -1 47 4 29 3 56 -2 62 -14 14 -11 65 4 62 9 -1 11 20 9 86 -1 48 1 87 5 87
5 0 7 21 7 47 -3 79 6 113 27 113 23 0 26 -37 5 -65 -16 -23 -10 -46 10 -38 8
3 14 -1 14 -11 0 -9 -4 -16 -8 -16 -5 0 -7 -17 -4 -37 2 -21 4 -107 5 -190 1
-84 4 -153 7 -153 3 0 6 -68 6 -150 3 -221 28 -320 82 -320 9 0 23 -9 30 -20
13 -22 17 -22 -63 -4 -20 5 -20 5 0 -11 14 -11 16 -18 8 -23 -7 -4 -10 -34 -9
-82 2 -71 4 -75 24 -73 26 3 29 -12 5 -25 -14 -9 -14 -10 5 -16 23 -8 40 -31
45 -63 1 -10 5 -22 9 -28 10 -17 2 -133 -11 -149 -8 -10 -9 -16 -1 -21 5 -3
10 -25 10 -48 1 -75 25 -172 48 -195 l22 -22 0 40 c0 22 -4 40 -9 40 -11 0
-21 91 -12 108 6 11 10 10 21 -3 14 -17 21 -65 9 -65 -4 0 -5 -9 -2 -20 6 -24
19 -25 41 -4 14 15 14 17 -1 26 -22 12 -23 83 -2 105 22 21 47 0 39 -33 -4
-14 -1 -31 6 -39 7 -9 10 -18 7 -22 -4 -3 -2 -12 4 -19 8 -10 8 -22 1 -43 -6
-16 -7 -31 -2 -33 4 -2 9 -19 11 -38 2 -19 6 -39 10 -45 6 -9 8 -26 10 -66 1
-25 28 -97 29 -76 0 14 5 17 22 12 17 -6 20 -4 15 9 -4 9 -10 23 -13 31 -4 10
0 15 10 15 9 0 16 -4 16 -10 0 -5 5 -10 11 -10 5 0 8 4 4 9 -3 5 0 21 6 35 9
19 9 32 -2 58 -7 18 -14 38 -15 43 0 6 -2 16 -2 23 -1 6 -10 12 -19 12 -13 0
-14 -3 -5 -12 7 -7 12 -40 12 -77 0 -60 -1 -64 -16 -49 -20 20 -33 178 -15
178 7 0 14 -6 17 -14 3 -7 14 -11 27 -9 17 3 27 -4 42 -29 11 -18 20 -40 21
-48 1 -25 16 -63 30 -78 8 -7 14 -23 14 -34 0 -12 8 -30 17 -41 16 -17 18 -41
18 -185 0 -123 3 -166 13 -169 6 -3 12 -12 13 -21 0 -11 4 -8 10 8 9 23 14 74
23 242 4 72 11 92 25 69 7 -11 10 -11 14 0 4 10 6 9 6 -3 1 -10 -3 -18 -9 -18
-13 0 -13 -47 0 -55 14 -8 13 -45 -1 -45 -8 0 -8 -5 1 -15 7 -8 10 -28 8 -45
-3 -22 0 -30 10 -30 10 0 13 -7 9 -21 -3 -12 0 -22 9 -26 19 -7 18 -23 -1 -23
-24 0 -17 -18 13 -34 15 -8 21 -16 15 -17 -7 -1 -17 -2 -22 -3 -17 -2 -25 -16
-9 -16 22 0 34 -19 42 -62 5 -30 2 -41 -18 -63 -17 -18 -26 -22 -29 -13 -4 10
-9 8 -20 -5 -18 -21 -67 -14 -67 10 0 8 -6 13 -12 10 -7 -2 -12 -15 -10 -27 3
-26 -18 -80 -32 -80 -4 0 -6 6 -3 14 6 16 -8 15 -40 -2 -12 -7 -28 -12 -36
-12 -8 0 -20 -7 -27 -15 -9 -11 -9 -15 -1 -15 7 0 9 -5 6 -10 -4 -6 -9 -8 -13
-6 -4 2 -13 -2 -20 -10 -11 -12 -10 -14 3 -14 8 0 15 -4 15 -10 0 -5 -13 -7
-29 -4 -16 3 -37 1 -48 -5 -17 -10 -17 -10 1 -11 11 0 16 -3 13 -7 -4 -3 -2
-12 5 -20 14 -17 11 -19 -31 -28 -24 -5 -32 -4 -26 4 5 8 -1 10 -21 5 -16 -4
-41 -7 -56 -7 -31 0 -32 -4 -18 -42 7 -18 6 -31 -3 -45 -15 -25 -37 -26 -37
-2 0 28 -11 34 -32 15 -16 -14 -18 -14 -18 -1 0 9 -7 18 -15 22 -8 3 -15 10
-15 17 0 6 7 9 15 5 14 -5 15 -1 15 32 0 4 -7 7 -14 7 -8 0 -18 4 -22 8 -13
13 -34 7 -28 -8 8 -20 -26 -20 -52 0 -25 19 -34 19 -34 0 0 -10 -10 -15 -26
-15 -22 0 -25 -2 -14 -15 7 -8 19 -15 26 -15 8 0 14 -4 14 -10 0 -13 -26 -13
-51 1 -12 6 -28 8 -37 4 -13 -5 -10 -9 16 -20 49 -21 42 -45 -14 -45 -25 0
-52 -6 -59 -14 -19 -19 -9 -25 31 -19 41 7 44 -6 10 -42 -19 -20 -25 -22 -29
-11 -3 8 -1 17 6 20 7 3 -1 4 -17 3 -16 -1 -31 -8 -34 -15 -2 -7 2 -10 11 -6
8 3 17 -2 20 -10 4 -9 13 -16 22 -16 8 0 15 -5 15 -11 0 -5 -4 -7 -10 -4 -5 3
-22 -1 -37 -9 -16 -8 -36 -17 -45 -20 -21 -6 -24 -35 -5 -40 6 -3 24 -7 40
-10 30 -7 35 -21 11 -30 -8 -3 -12 -2 -9 4 3 6 -3 10 -14 10 -10 0 -22 -6 -24
-12 -4 -10 -6 -9 -6 1 -1 11 -4 11 -16 1 -16 -13 -21 -75 -6 -66 14 9 38 -3
38 -19 0 -18 -3 -18 -27 -5 -15 8 -19 7 -17 -2 2 -7 -1 -3 -7 9 -9 22 -10 21
-22 -14 -14 -40 -11 -53 11 -53 20 0 7 -27 -16 -33 -10 -3 -19 -1 -19 4 0 5
-5 9 -11 9 -5 0 -7 -4 -4 -10 3 -5 3 -15 -1 -22 -10 -16 -11 -58 -2 -58 4 0 8
-5 8 -11 0 -6 -7 -8 -17 -5 -22 9 -34 -13 -22 -37 7 -13 7 -23 -1 -32 -7 -8
-9 -19 -5 -25 4 -6 1 -18 -7 -27 -11 -14 -10 -15 10 -9 13 5 22 3 22 -3 0 -6
-12 -11 -28 -11 -28 0 -72 -24 -72 -40 0 -5 9 -12 20 -15 16 -5 18 -10 9 -26
-5 -11 -14 -17 -20 -14 -5 4 -9 1 -9 -4 0 -6 -7 -11 -15 -11 -8 0 -15 -7 -15
-15 0 -8 6 -12 13 -10 6 3 17 -3 24 -14 11 -17 8 -19 -30 -26 -37 -7 -39 -8
-17 -14 l24 -7 -21 -15 c-25 -18 -66 -87 -58 -100 4 -5 -2 -9 -13 -9 -10 0
-28 -11 -40 -25 -12 -14 -17 -25 -12 -25 26 0 6 -19 -26 -25 l-37 -6 6 -55 c3
-34 2 -54 -5 -54 -5 0 -8 7 -5 15 4 8 2 17 -4 21 -13 8 -40 -27 -34 -44 17
-48 17 -61 -2 -56 -10 2 -32 -4 -50 -15 -24 -15 -30 -25 -27 -43 2 -13 2 -17
-2 -10 -9 20 -18 14 -38 -23 -11 -19 -23 -35 -29 -35 -11 0 -57 -42 -57 -52 0
-4 7 -5 15 -2 10 4 15 0 15 -14 0 -11 7 -23 16 -26 9 -4 15 -9 12 -12 -7 -6
-68 28 -68 39 0 4 -7 7 -15 7 -8 0 -15 -4 -15 -10 0 -5 4 -10 8 -10 8 0 8 -19
0 -77 -1 -7 -7 -13 -14 -13 -7 0 -15 -6 -17 -12 -5 -12 -11 17 -8 35 1 5 -8
11 -19 14 -11 3 -17 9 -14 14 12 21 -18 7 -48 -22 -22 -20 -27 -29 -14 -25 16
6 17 4 6 -9 -15 -18 -37 -20 -42 -3 -4 10 -10 10 -32 0 -22 -10 -26 -16 -17
-26 6 -7 8 -16 4 -20 -4 -4 -1 -11 7 -16 26 -16 -6 -34 -59 -32 l-50 1 6 -30
c5 -24 2 -29 -14 -29 -27 0 -35 11 -20 28 10 13 8 14 -15 8 -38 -9 -35 2 4 19
24 10 27 14 13 14 -39 1 -66 -11 -62 -28 2 -9 -3 -29 -10 -44 -17 -34 -48 -33
-47 1 1 39 -40 24 -62 -24 -14 -29 -22 -34 -50 -34 -34 0 -55 -17 -35 -29 6
-4 9 -15 5 -24 -5 -14 0 -17 27 -17 38 0 53 -8 62 -32 6 -17 -17 -28 -62 -28
-23 0 -24 1 -6 20 18 20 17 20 -13 20 -17 0 -32 -5 -34 -12 -6 -16 -48 -18
-48 -1 0 7 -9 13 -21 13 -16 0 -19 -4 -14 -20 4 -13 1 -22 -9 -26 -9 -3 -16
-13 -16 -21 0 -7 -7 -13 -16 -11 -10 2 -19 -2 -21 -9 -3 -9 6 -10 32 -6 36 6
37 5 26 -15 -6 -12 -23 -25 -38 -28 -14 -4 -39 -21 -54 -38 -27 -29 -28 -36
-28 -126 0 -94 0 -95 14 -55 8 21 12 41 10 43 -2 3 0 13 5 23 7 12 7 20 0 24
-5 3 -10 11 -10 17 0 6 8 3 19 -8 11 -12 15 -23 10 -30 -10 -12 16 -74 31 -74
19 0 27 56 14 105 -12 48 -12 51 14 77 14 16 35 28 46 28 12 0 36 14 53 30 25
24 38 29 58 24 16 -4 32 -1 43 8 22 19 60 29 68 17 3 -5 -1 -9 -8 -9 -10 0
-10 -2 1 -9 9 -6 10 -11 2 -15 -19 -12 -12 -26 13 -26 19 0 23 4 19 20 -3 12
0 20 7 20 9 0 9 4 -1 17 -13 15 -11 16 19 10 20 -4 41 -2 53 6 20 12 31 5 42
-28 2 -6 10 -5 20 3 23 19 91 12 95 -10 2 -13 -3 -18 -17 -18 -15 0 -20 -6
-19 -22 0 -13 -3 -36 -7 -53 -8 -27 -7 -29 8 -16 15 12 17 11 17 -11 0 -21 -4
-24 -34 -20 -37 4 -84 42 -53 42 20 0 34 47 20 69 -5 8 -21 15 -34 16 -21 0
-25 -7 -33 -47 -10 -52 -33 -69 -54 -41 -10 14 -14 15 -21 5 -7 -11 -9 -10
-14 2 -5 13 -15 15 -48 10 -29 -5 -43 -3 -49 6 -9 15 -40 6 -40 -11 0 -6 9
-13 19 -16 19 -5 36 -53 20 -53 -5 0 -9 6 -9 14 0 10 -9 14 -28 12 -17 -1 -32
5 -40 16 -18 24 -35 13 -21 -13 14 -27 3 -37 -21 -21 -25 15 -43 15 -58 0 -9
-9 -8 -14 1 -22 22 -19 40 -85 28 -100 -15 -18 -3 -46 19 -46 20 0 30 19 30
56 0 14 -6 24 -15 24 -20 0 -8 28 16 35 25 8 56 -14 38 -26 -10 -6 -10 -16 1
-49 12 -35 17 -41 39 -38 23 3 27 9 33 51 7 55 14 65 29 50 7 -7 5 -14 -6 -23
-8 -7 -15 -17 -15 -23 0 -6 9 -1 20 11 12 12 22 22 24 22 2 0 2 -20 1 -44 -1
-43 0 -45 29 -44 17 1 25 3 19 5 -7 3 -13 18 -13 35 0 28 2 30 28 24 15 -4 34
-8 42 -10 8 -1 23 -6 32 -10 11 -5 23 -1 37 13 18 18 19 21 4 21 -9 0 -14 3
-10 6 12 12 48 -9 62 -37 9 -16 22 -29 30 -29 8 0 15 -4 15 -10 0 -5 7 -10 16
-10 12 0 15 6 10 24 -7 29 15 50 44 41 20 -6 28 -25 11 -25 -5 0 -7 -9 -4 -20
5 -19 14 -20 229 -20 140 0 225 4 229 10 4 6 11 8 16 5 5 -4 9 5 9 19 0 13 -4
26 -9 28 -6 2 -6 17 -1 38 7 31 15 26 11 -7 -1 -7 2 -13 8 -13 5 0 7 -9 4 -19
-3 -10 0 -28 6 -40 11 -20 18 -21 256 -21 185 0 244 3 248 13 3 9 9 9 26 0 16
-10 331 -13 1482 -13 l1461 0 -6 28 c-8 36 -14 84 -20 155 -3 31 -10 85 -16
120 -29 166 -39 226 -45 272 -3 28 -11 71 -17 97 -9 38 -9 50 3 64 12 16 12
17 -2 12 -13 -5 -18 0 -22 20 -3 15 0 31 6 35 9 6 9 10 -1 14 -6 2 -10 8 -7
13 3 4 0 32 -6 61 -16 74 -18 111 -7 132 6 12 5 17 -5 17 -8 0 -17 11 -19 25
-3 14 -1 25 4 25 9 0 78 -104 78 -118 0 -5 13 -27 28 -48 16 -22 27 -45 24
-52 -2 -6 3 -15 12 -18 9 -3 16 -11 16 -18 0 -6 9 -22 20 -36 l20 -25 0 32 c0
30 -27 94 -42 101 -5 2 -8 16 -8 32 0 15 -7 33 -15 40 -8 7 -15 18 -15 24 0 6
-11 31 -24 56 -25 49 -51 120 -48 133 1 4 -9 25 -22 46 -14 21 -22 42 -19 45
4 3 1 6 -6 6 -13 0 -6 -35 11 -57 7 -9 7 -13 0 -13 -11 0 -74 119 -84 158 -7
24 10 30 30 10 6 -6 15 -9 18 -5 4 3 -1 13 -10 22 -20 20 -21 35 -1 35 9 0 12
6 8 16 -3 8 -11 13 -18 11 -14 -6 -36 28 -29 46 2 7 -5 22 -16 32 -16 14 -17
20 -8 27 10 6 10 10 0 17 -8 4 -12 19 -10 32 l4 24 12 -27 c12 -28 30 -44 39
-34 4 3 -1 14 -9 23 -22 25 -58 99 -52 106 3 2 -6 27 -19 55 -23 47 -23 50 -6
49 11 -1 19 -7 19 -14 0 -7 4 -13 8 -13 5 0 20 -16 34 -35 l25 -36 -1 33 c-1
23 -10 41 -31 60 -22 20 -26 27 -13 28 11 0 15 6 11 21 -4 12 -11 18 -20 15
-8 -3 -11 -1 -8 4 3 6 2 10 -3 10 -6 0 -8 9 -5 20 6 23 19 26 26 8 3 -8 6 -7
6 4 1 9 -3 20 -9 23 -17 11 -11 23 13 27 14 2 21 9 21 21 -2 19 11 23 21 7 3
-5 11 -10 17 -10 6 0 1 12 -13 28 -13 15 -20 24 -15 20 5 -4 18 -2 30 5 27 15
67 17 84 4 7 -5 15 -7 19 -4 3 4 12 2 20 -4 10 -9 13 -8 13 2 0 11 15 14 59
14 47 0 57 -3 53 -14 -4 -11 -1 -13 14 -7 20 8 28 10 82 22 22 4 32 3 32 -6 0
-16 60 -5 103 19 18 10 37 16 44 14 6 -2 32 5 57 16 25 12 49 21 54 21 6 0 13
7 16 15 3 9 11 15 18 14 37 -4 57 2 52 16 -5 11 1 15 24 15 17 0 34 5 37 10 3
6 14 10 25 10 10 0 20 7 24 15 3 8 14 15 25 15 10 0 21 6 24 14 3 8 24 17 45
21 22 3 48 13 59 20 23 18 87 19 100 3 10 -14 10 -185 -1 -195 -3 -3 -6 -25
-6 -48 0 -23 -4 -55 -9 -71 -5 -16 -14 -63 -21 -104 -7 -41 -19 -94 -26 -118
-8 -24 -12 -48 -8 -53 3 -5 -2 -29 -11 -54 -10 -24 -15 -52 -11 -61 4 -9 0
-24 -8 -33 -8 -9 -16 -40 -19 -69 -3 -29 -9 -58 -15 -65 -5 -6 -12 -36 -15
-66 -4 -30 -11 -59 -17 -65 -5 -5 -10 -20 -10 -32 0 -12 -7 -41 -16 -65 -9
-24 -16 -62 -15 -83 1 -24 -6 -47 -16 -58 -11 -12 -18 -39 -20 -70 -1 -30 -8
-57 -19 -69 -11 -12 -15 -28 -11 -46 3 -18 -1 -37 -13 -53 -11 -16 -18 -45
-19 -79 0 -33 -7 -61 -16 -71 -18 -20 -19 -34 -3 -60 10 -15 9 -26 -6 -57 -10
-21 -20 -57 -22 -81 -3 -24 -12 -58 -21 -75 -9 -18 -15 -51 -14 -74 1 -25 -5
-52 -13 -66 -9 -13 -17 -48 -18 -78 -1 -30 -7 -61 -13 -69 -7 -8 -15 -34 -18
-57 l-5 -43 1904 0 c1517 0 1904 3 1904 12 0 10 2 10 9 0 11 -17 21 -17 32 0
7 10 9 10 9 1 0 -18 237 -18 243 0 3 9 8 9 18 1 8 -5 30 -11 49 -12 31 -2 33
-1 18 11 -11 8 -14 18 -8 27 7 11 11 11 24 1 13 -11 21 -10 48 6 53 31 66 34
61 14 -3 -11 4 -21 19 -28 23 -12 23 -12 1 -12 -34 -1 -38 -21 -4 -21 16 0 33
5 36 10 3 6 15 10 26 10 11 0 17 -5 14 -10 -4 -6 7 -10 25 -10 20 0 29 4 25
11 -4 6 -13 8 -21 5 -8 -3 -14 1 -14 9 0 10 -10 15 -31 15 -28 0 -31 2 -25 24
4 18 1 28 -11 36 -17 11 -17 11 1 6 12 -4 31 3 52 19 19 15 35 21 39 15 17
-28 25 -1 25 90 0 69 -4 99 -11 98 -6 -2 -14 3 -17 11 -3 10 0 12 11 8 14 -5
15 10 14 121 l-2 127 -30 -3 c-16 -1 -41 0 -53 3 -19 5 -21 9 -12 20 7 9 8 15
0 20 -5 3 -10 12 -10 19 0 18 47 9 82 -16 l27 -19 0 91 c0 72 -3 90 -14 90 -8
0 -15 7 -15 16 0 14 3 14 15 4 13 -11 15 13 15 209 0 170 -3 221 -12 221 -10
0 -10 2 -1 8 7 4 11 34 11 75 0 67 0 67 -27 65 -21 -2 -27 2 -30 22 -1 14 -8
28 -15 32 -17 11 -86 9 -86 -2 0 -5 7 -10 17 -10 9 0 13 -3 10 -6 -3 -4 -2
-15 4 -25 6 -12 6 -19 0 -19 -5 0 -12 6 -15 13 -5 10 -7 10 -12 0 -9 -21 -45
-15 -51 7 -6 23 -53 29 -53 6 0 -21 -29 -28 -58 -14 -33 17 -43 43 -13 35 11
-3 24 -1 27 4 3 5 12 9 20 9 8 0 12 -4 9 -10 -9 -15 7 -12 29 5 19 14 18 15
-10 15 -17 0 -36 6 -42 12 -10 10 -15 10 -21 -1 -10 -16 -47 -10 -43 8 2 10
-5 12 -29 7 -40 -8 -45 -12 -31 -29 8 -10 6 -21 -8 -44 -10 -17 -16 -40 -13
-51 7 -30 -48 -47 -70 -22 -15 17 -14 19 2 25 10 3 27 3 37 -1 15 -5 16 -4 5
4 -12 8 -12 14 -3 25 7 7 8 18 4 22 -4 5 1 5 11 2 27 -10 23 39 -5 55 -26 14
-126 17 -131 4 -4 -11 -47 11 -47 25 0 6 -7 17 -15 25 -17 17 -20 34 -6 34 5
0 11 -9 14 -21 5 -18 8 -19 26 -7 12 7 21 18 21 25 0 7 7 13 15 13 29 0 14 28
-25 48 -55 28 -86 48 -108 67 -12 11 -35 22 -50 25 -15 3 -31 15 -37 28 -5 12
-14 22 -20 23 -5 0 -24 21 -41 47 -17 26 -39 52 -50 57 -11 6 -20 22 -21 37
-1 15 -11 37 -22 50 -12 12 -21 33 -21 46 0 14 -12 41 -27 60 -15 20 -21 32
-15 28 18 -11 14 5 -14 57 -14 27 -23 54 -21 61 3 6 -1 20 -9 31 -8 10 -14 34
-14 52 0 19 -6 46 -14 61 -17 34 -32 123 -35 206 -1 12 -6 16 -16 12 -8 -3
-15 -1 -15 4 0 6 5 10 11 10 11 0 8 47 -7 135 -3 17 -7 50 -9 75 -2 25 -4 50
-5 55 -1 6 -1 12 0 15 17 45 22 98 10 105 -28 17 -132 -10 -113 -28 3 -4 1 -7
-5 -7 -18 0 -25 20 -12 35 7 8 24 15 38 15 32 0 112 29 112 41 0 11 -56 1 -98
-18 -40 -17 -52 -11 -28 16 10 10 16 27 14 38 -2 14 3 18 30 18 34 0 42 9 17
19 -8 3 -12 12 -9 19 3 9 -3 17 -18 20 -27 7 -16 23 22 31 14 2 -15 2 -65 -1
-84 -5 -133 -7 -162 -4 -8 1 -13 15 -14 34 l0 32 -17 -33 c-14 -30 -19 -32
-51 -26 -58 10 -97 26 -109 44 -7 11 -7 40 0 91 14 103 12 141 -7 152 -12 6
-15 16 -9 40 3 18 12 36 18 40 8 6 8 10 -1 13 -7 3 -2 14 13 29 26 26 31 54
13 72 -8 8 -5 17 10 32 16 16 21 35 22 83 1 35 -1 73 -5 85 -4 12 -2 24 4 28
6 3 7 12 3 18 -18 29 -13 114 6 102 9 -5 -4 45 -20 78 -6 10 -5 24 2 36 7 11
9 26 4 37 -9 22 -14 39 -19 76 -3 15 -7 32 -10 37 -4 5 1 14 10 19 10 6 14 17
11 33 l-4 24 -8 -24 c-8 -23 -9 -22 -26 14 -18 36 -18 40 -3 57 16 16 16 18 0
24 -19 7 -22 64 -3 64 9 0 9 2 -1 9 -25 15 -47 135 -43 235 1 32 3 36 15 27
17 -14 28 -51 15 -51 -5 0 -9 -5 -9 -11 0 -6 7 -9 15 -5 20 7 19 -13 -2 -36
-13 -15 -14 -23 -5 -43 7 -14 20 -25 31 -25 14 0 19 -5 15 -15 -5 -11 -2 -13
9 -9 9 3 13 12 11 19 -3 7 1 15 9 17 15 3 9 34 -43 223 -13 44 -28 104 -34
132 -6 29 -17 58 -24 65 -6 6 -12 19 -12 28 0 32 -49 164 -64 172 -20 11 -21
39 -2 32 12 -5 14 2 12 33 -2 21 -5 40 -6 43 -1 3 -2 13 -1 22 1 9 -5 31 -14
49 -9 17 -14 40 -11 51 2 11 -8 48 -23 82 -16 33 -38 113 -51 176 -12 63 -26
118 -32 121 -5 3 -11 39 -12 79 -2 42 -8 75 -15 79 -6 4 -15 25 -18 46 -4 27
-3 36 5 31 18 -11 15 43 -3 60 -8 9 -15 30 -15 47 -1 18 -7 61 -15 97 -8 36
-14 84 -15 106 0 23 -6 47 -14 53 -14 12 -23 44 -32 121 -3 25 -10 61 -16 80
-15 43 -14 42 -32 115 -28 116 -38 150 -53 183 -8 18 -12 38 -9 45 2 7 5 3 5
-7 1 -11 4 -17 7 -13 8 7 -18 77 -28 77 -4 0 -8 11 -8 24 0 13 -7 29 -15 36
-8 7 -15 22 -15 34 -1 11 -7 32 -15 46 -8 14 -14 35 -15 47 0 12 -7 28 -15 37
-8 8 -15 19 -15 25 0 6 -5 11 -11 11 -8 0 -8 5 1 15 10 12 8 16 -9 23 -16 5
-29 28 -46 75 -22 65 -22 80 3 55 7 -7 12 -8 12 -2 0 6 -13 20 -30 32 -17 13
-34 39 -41 62 -7 22 -16 40 -21 40 -4 0 -8 7 -8 15 0 8 -6 15 -14 15 -17 0
-29 27 -16 35 16 10 11 28 -5 22 -9 -4 -20 5 -30 26 -11 22 -12 33 -5 35 6 2
2 10 -9 18 -11 8 -18 20 -15 27 2 7 -9 34 -26 60 -18 25 -29 51 -26 56 4 5 0
13 -7 18 -8 4 -22 22 -31 40 -9 17 -24 38 -33 45 -20 14 -31 64 -12 52 7 -4
10 -1 7 7 -3 8 -11 13 -18 11 -7 -2 -10 3 -7 12 4 10 1 13 -9 9 -8 -3 -14 1
-14 9 0 8 -9 23 -20 33 -13 12 -18 25 -14 38 6 19 -24 57 -45 57 -6 0 -16 10
-22 23 -11 19 -11 21 3 9 10 -8 19 -9 22 -4 3 6 -1 15 -10 22 -8 8 -26 36 -40
65 -14 28 -45 78 -70 110 -24 33 -44 63 -44 67 0 5 -7 8 -15 8 -8 0 -12 6 -9
13 2 7 -19 42 -48 77 -87 106 -109 140 -103 150 6 10 -21 53 -61 97 -13 14
-26 35 -30 46 -8 25 -75 117 -116 160 -15 17 -28 37 -28 46 0 10 -18 28 -39
41 -21 14 -37 28 -35 32 5 8 -78 88 -92 88 -7 0 -14 7 -18 15 -3 8 -15 15 -26
15 -21 0 -27 15 -10 23 6 3 5 4 -2 3 -7 -2 -30 12 -52 30 -21 18 -50 34 -65
36 -14 2 -26 8 -26 15 0 14 -103 93 -122 93 -7 0 -13 5 -13 10 0 6 -6 10 -14
10 -7 0 -19 6 -25 14 -6 7 -23 14 -37 14 -17 0 -24 -5 -20 -14 3 -8 1 -14 -4
-14 -6 0 -10 6 -10 13 0 16 -36 47 -54 47 -8 0 -27 7 -42 15 -33 17 -179 21
-189 5 -4 -6 -11 -7 -18 -3 -6 3 -49 8 -96 10 -83 3 -151 -9 -151 -28 0 -5 -8
-9 -17 -9 -10 0 -31 -7 -47 -15 -15 -8 -32 -15 -36 -15 -13 0 -90 -53 -90 -62
0 -4 -13 -8 -30 -8 -16 0 -30 -4 -30 -10 0 -5 5 -10 11 -10 5 0 8 -4 4 -10
-11 -17 -36 1 -29 22 6 18 -10 48 -27 48 -4 0 -14 -7 -23 -15 -13 -13 -16 -13
-30 0 -9 9 -19 21 -23 28 -7 11 -24 21 -76 45 -5 3 -1 -8 9 -23 l18 -28 -24
14 c-14 8 -27 16 -30 19 -3 3 -27 16 -55 29 -48 23 -59 24 -297 26 -144 2
-246 -1 -242 -6z m1417 -16 c-7 -2 -19 -2 -25 0 -7 3 -2 5 12 5 14 0 19 -2 13
-5z m-173 -38 c8 -1 26 -2 39 -3 43 -3 7 -19 -46 -21 -13 -1 -23 -7 -23 -13 0
-8 -15 -13 -39 -13 -21 -1 -57 -7 -80 -15 -53 -17 -65 -6 -15 15 30 12 35 18
24 25 -10 6 -2 7 23 3 24 -4 37 -2 37 6 0 6 9 11 20 11 11 0 20 5 20 11 0 6 6
7 12 2 7 -4 20 -8 28 -8z m115 -15 c3 -6 -4 -10 -17 -10 -18 0 -20 2 -8 10 19
12 18 12 25 0z m-1455 -9 c0 -6 -4 -13 -10 -16 -5 -3 -10 1 -10 9 0 9 5 16 10
16 6 0 10 -4 10 -9z m1350 -31 c13 -8 13 -10 -2 -10 -9 0 -20 5 -23 10 -8 13
5 13 25 0z m-1325 -10 c-3 -5 -13 -10 -21 -10 -8 0 -14 -5 -14 -11 0 -7 -10
-9 -26 -5 -17 5 -24 3 -19 -4 4 -7 -2 -14 -14 -17 -12 -3 -21 -10 -21 -15 0
-5 -5 -6 -12 -2 -8 5 -4 11 14 18 14 6 25 16 24 21 0 6 10 12 24 13 14 2 29 8
35 13 12 12 38 12 30 -1z m1385 -16 c0 -2 -7 -4 -15 -4 -8 0 -15 4 -15 10 0 5
7 7 15 4 8 -4 15 -8 15 -10z m-56 -45 c-7 -11 -44 -12 -44 -1 0 15 11 20 30
15 11 -3 17 -9 14 -14z m83 -35 c3 -7 9 -12 13 -9 5 3 11 1 15 -5 3 -5 1 -10
-6 -10 -7 0 -4 -7 7 -15 23 -17 9 -19 -34 -4 -17 6 -33 17 -36 24 -3 10 0 12
12 8 16 -6 16 -5 0 14 -10 11 -18 23 -18 27 0 11 41 -14 47 -30z m-1603 7 c3
-4 17 -6 31 -4 13 3 41 2 60 -1 31 -6 34 -10 29 -31 -5 -20 -2 -25 12 -25 14
0 15 -3 6 -12 -15 -15 -42 -19 -42 -7 0 21 -29 18 -71 -6 l-44 -26 35 7 c19 3
37 10 38 15 6 15 22 10 22 -6 0 -8 -7 -15 -15 -15 -8 0 -15 -6 -15 -13 0 -15
-41 -37 -68 -37 -14 0 -15 -2 -2 -10 12 -8 10 -14 -15 -40 -28 -29 -21 -44 8
-15 18 17 67 31 67 18 0 -12 -67 -65 -102 -80 -15 -7 -26 -18 -24 -25 1 -7 1
-10 -1 -5 -10 17 -23 5 -23 -23 0 -28 -8 -35 -37 -31 -7 1 -13 -7 -13 -18 0
-11 -9 -26 -20 -34 -11 -8 -17 -16 -14 -20 9 -9 -36 -65 -57 -70 -23 -6 -26
11 -4 20 14 5 45 63 45 85 0 12 -43 -11 -53 -28 -11 -19 -37 -18 -37 1 0 8 -5
15 -11 15 -7 0 -10 -12 -7 -30 4 -26 2 -29 -17 -24 -16 4 -26 -1 -37 -18 -9
-13 -25 -34 -37 -48 -19 -20 -24 -22 -31 -10 -7 12 18 42 107 128 64 62 118
110 121 107 3 -3 11 0 19 7 11 9 11 14 -3 29 -16 18 -18 18 -48 1 -17 -9 -34
-21 -38 -27 -5 -7 -8 -6 -8 1 0 6 16 24 35 41 34 31 45 53 25 53 -5 0 -15 -9
-22 -19 -6 -10 -17 -17 -23 -15 -6 3 -20 -4 -30 -16 -10 -11 -24 -20 -32 -20
-7 0 -13 -7 -13 -15 0 -8 -6 -15 -13 -15 -7 0 -29 -9 -49 -20 l-38 -20 20 32
c10 17 26 33 35 34 31 5 45 13 45 28 0 8 9 18 20 21 11 3 20 12 20 19 0 7 11
19 25 26 14 7 25 17 25 22 0 4 7 8 16 8 15 0 73 35 84 51 3 4 23 9 45 10 31 3
43 10 53 30 7 14 24 32 38 39 36 20 23 22 -26 5 -51 -18 -64 -11 -30 15 26 20
75 27 84 11z m1505 -15 c17 -21 7 -22 -99 -16 -66 3 -88 7 -72 13 12 5 47 7
77 6 30 -1 58 0 62 4 10 11 19 8 32 -7z m-1379 -90 c0 -2 -7 -7 -16 -10 -8 -3
-12 -2 -9 4 6 10 25 14 25 6z m-400 -21 c-7 -8 -16 -15 -21 -15 -5 0 -6 7 -3
15 4 8 13 15 21 15 13 0 13 -3 3 -15z m2068 -33 c7 -5 10 -16 6 -25 -9 -24
-21 -21 -26 8 -5 26 -1 30 20 17z m-467 -59 c12 -16 12 -17 -1 -7 -8 6 -22 14
-30 17 -13 5 -12 6 1 6 9 1 23 -7 30 -16z m539 -7 c0 -3 -4 -8 -10 -11 -5 -3
-10 -1 -10 4 0 6 5 11 10 11 6 0 10 -2 10 -4z m40 -57 c0 -14 -13 -10 -40 11
l-25 20 33 -11 c17 -6 32 -15 32 -20z m-341 8 c8 -10 7 -14 -4 -14 -8 0 -16 6
-19 14 -3 7 -2 13 3 13 5 0 14 -6 20 -13z m-139 -22 c0 -8 -2 -15 -4 -15 -2 0
-6 7 -10 15 -3 8 -1 15 4 15 6 0 10 -7 10 -15z m236 -33 c21 -17 34 -31 27
-32 -6 0 -18 6 -25 13 -7 6 -25 18 -40 26 -16 8 -28 18 -28 22 0 15 28 3 66
-29z m82 9 c7 0 16 -9 19 -18 4 -10 14 -24 22 -31 14 -10 13 -11 -4 -5 -11 4
-31 17 -44 29 -14 13 -28 21 -32 18 -4 -2 -10 0 -13 4 -3 5 5 8 17 7 12 -1 28
-3 35 -4z m-2130 -51 c-12 -19 -28 -27 -28 -14 0 6 30 33 38 34 1 0 -3 -9 -10
-20z m2278 -4 c10 -8 17 -17 14 -19 -3 -3 -16 3 -30 13 -29 22 -14 27 16 6z
m-62 -11 c-7 -16 -24 -21 -24 -6 0 8 7 13 27 20 1 1 0 -6 -3 -14z m-2339 -15
c-10 -11 -20 -18 -23 -15 -7 6 18 35 31 35 5 0 2 -9 -8 -20z m405 -15 c0 -8
-7 -15 -15 -15 -16 0 -20 12 -8 23 11 12 23 8 23 -8z m125 -5 c3 -6 -1 -7 -9
-4 -18 7 -21 14 -7 14 6 0 13 -4 16 -10z m-25 -19 c0 -5 -7 -11 -15 -15 -8 -3
-15 -15 -15 -26 0 -11 -9 -28 -19 -36 -21 -18 -81 -27 -81 -12 0 5 4 7 9 4 5
-3 31 16 58 44 47 48 63 59 63 41z m2130 -16 c0 -9 -6 -12 -15 -9 -8 4 -15 10
-15 15 0 5 7 9 15 9 8 0 15 -7 15 -15z m-2283 -95 c10 0 14 -6 10 -20 -6 -23
3 -26 22 -7 11 10 12 8 6 -12 -5 -17 -4 -21 4 -16 8 4 7 -6 -3 -28 -8 -21 -12
-53 -10 -77 4 -36 2 -42 -15 -47 -12 -3 -21 -13 -21 -23 0 -10 -12 -32 -26
-49 -24 -29 -21 -44 4 -19 7 7 12 8 12 3 0 -6 -18 -20 -40 -33 -22 -12 -40
-26 -40 -31 0 -11 -70 -85 -75 -79 -2 2 12 28 33 58 20 30 42 70 49 88 10 29
9 34 -10 47 l-22 15 28 27 c15 15 27 22 27 15 0 -7 5 -10 10 -7 6 3 10 -2 10
-11 0 -14 3 -15 12 -6 9 9 8 15 -7 26 -18 13 -18 16 -5 42 8 16 21 35 28 42 6
7 12 18 12 23 0 17 -15 9 -25 -12 -6 -12 -13 -20 -17 -18 -4 2 -14 -5 -22 -16
-9 -11 -16 -15 -16 -9 0 6 12 21 26 33 23 20 26 29 22 72 -5 52 0 69 14 44 5
-8 16 -15 25 -15z m-320 -36 c-20 -20 -27 -23 -27 -11 0 9 9 19 20 22 11 3 20
11 20 17 0 6 3 8 7 5 3 -4 -6 -19 -20 -33z m2588 -23 c10 -17 -11 -21 -31 -6
-18 14 -18 14 3 15 12 0 24 -4 28 -9z m-2203 -43 c-12 -25 -17 -29 -20 -16 -2
10 3 24 10 32 22 26 27 18 10 -16z m2180 -101 c55 -54 97 -101 93 -105 -4 -4
-21 9 -38 28 -22 25 -40 35 -62 36 -23 0 -31 5 -33 22 -2 12 -19 37 -38 56
-26 26 -34 42 -33 68 1 21 3 26 6 13 3 -11 50 -64 105 -118z m-1298 108 c-4
-8 -8 -15 -10 -15 -2 0 -4 7 -4 15 0 8 4 15 10 15 5 0 7 -7 4 -15z m1173 -7
c-3 -8 -6 -5 -6 6 -1 11 2 17 5 13 3 -3 4 -12 1 -19z m188 -16 c-6 -7 -35 18
-35 31 0 5 9 2 20 -8 11 -10 18 -20 15 -23z m-371 -8 c3 -8 2 -12 -4 -9 -6 3
-10 10 -10 16 0 14 7 11 14 -7z m-2054 -15 c0 -5 -5 -15 -10 -22 -6 -7 -24
-28 -40 -47 -16 -19 -28 -41 -25 -47 2 -7 -2 -13 -11 -13 -8 0 -19 -10 -23
-22 -8 -21 -10 -21 -16 -5 -16 40 16 142 48 151 17 4 18 3 3 -13 -9 -10 -16
-28 -15 -42 l0 -24 9 23 c5 12 13 22 17 22 4 0 16 14 25 31 16 28 38 32 38 8z
m175 -8 c3 -5 1 -12 -5 -16 -5 -3 -10 1 -10 9 0 18 6 21 15 7z m25 -31 c-6
-11 -12 -20 -14 -20 -2 0 -2 9 1 20 3 11 9 20 15 20 5 0 4 -9 -2 -20z m2360
-11 c0 -6 -4 -7 -10 -4 -5 3 -10 11 -10 16 0 6 5 7 10 4 6 -3 10 -11 10 -16z
m-395 -19 c3 -5 1 -10 -4 -10 -6 0 -11 5 -11 10 0 6 2 10 4 10 3 0 8 -4 11
-10z m-1424 -53 c-11 -29 -26 -35 -33 -14 -7 18 18 63 25 45 3 -8 6 -6 7 7 2
15 3 16 7 4 2 -8 -1 -28 -6 -42z m326 21 c-3 -7 -5 -2 -5 12 0 14 2 19 5 13 2
-7 2 -19 0 -25z m-1059 -21 c15 6 15 4 4 -10 -8 -9 -11 -21 -8 -26 4 -5 2 -12
-4 -16 -11 -7 -11 -6 -15 40 -2 17 -1 25 2 18 2 -7 12 -9 21 -6z m1062 -18 c0
-6 -4 -7 -10 -4 -5 3 -10 11 -10 16 0 6 5 7 10 4 6 -3 10 -11 10 -16z m1305 1
c-3 -5 -10 -10 -16 -10 -5 0 -9 5 -9 10 0 6 7 10 16 10 8 0 12 -4 9 -10z m60
-51 c16 -17 16 -18 -3 -16 -11 0 -19 4 -16 8 2 4 -7 10 -21 13 -14 4 -25 10
-25 15 0 14 48 0 65 -20z m-2595 0 c0 -28 -29 -52 -46 -38 -17 14 -19 23 -3
13 6 -3 15 0 20 7 14 23 10 32 -8 18 -16 -12 -17 -12 -6 2 17 21 43 20 43 -2z
m140 15 c0 -7 -27 -34 -34 -34 -3 0 -6 9 -6 20 0 13 7 20 20 20 11 0 20 -3 20
-6z m1089 -21 c-1 -44 11 -305 16 -336 3 -17 1 -26 -5 -22 -6 3 -10 14 -10 24
0 10 -3 21 -7 25 -11 10 -11 336 -1 336 5 0 8 -12 7 -27z m1101 17 c0 -5 -4
-10 -10 -10 -5 0 -10 5 -10 10 0 6 5 10 10 10 6 0 10 -4 10 -10z m-1514 -36
c-4 -9 -9 -15 -11 -12 -3 3 -3 13 1 22 4 9 9 15 11 12 3 -3 3 -13 -1 -22z
m1646 8 c8 -8 8 -15 -2 -27 -10 -12 -10 -15 4 -15 9 0 16 -8 16 -19 0 -11 5
-23 10 -26 15 -9 12 -25 -4 -19 -8 3 -24 28 -37 55 -13 27 -27 49 -32 49 -4 0
-6 4 -3 9 8 12 33 8 48 -7z m-112 -12 c0 -5 3 -16 6 -24 4 -12 2 -15 -9 -10
-8 3 -17 16 -19 29 -4 16 -1 22 9 18 7 -3 13 -9 13 -13z m-1230 -72 c-1 -44
-3 -58 -10 -47 -5 9 -7 34 -5 55 2 21 4 42 4 47 1 4 3 7 6 7 3 0 5 -28 5 -62z
m1514 47 c3 -8 1 -15 -4 -15 -6 0 -10 7 -10 15 0 8 2 15 4 15 2 0 6 -7 10 -15z
m-2547 -12 c-9 -9 -20 -13 -24 -9 -4 4 -1 11 7 16 25 16 35 11 17 -7z m777
-76 c-7 -83 -21 -141 -25 -104 -6 59 -5 86 4 117 6 19 10 46 8 59 -2 15 1 21
9 16 8 -5 9 -31 4 -88z m1876 83 c0 -5 -2 -10 -4 -10 -3 0 -8 5 -11 10 -3 6
-1 10 4 10 6 0 11 -4 11 -10z m-1958 -22 c-7 -7 -12 -8 -12 -2 0 14 12 26 19
19 2 -3 -1 -11 -7 -17z m-862 2 c0 -5 -4 -10 -10 -10 -5 0 -10 5 -10 10 0 6 5
10 10 10 6 0 10 -4 10 -10z m511 -7 c-5 -10 -12 -26 -15 -36 -3 -10 -10 -15
-16 -12 -11 7 5 44 24 57 16 11 17 10 7 -9z m1766 -5 c-3 -8 -6 -5 -6 6 -1 11
2 17 5 13 3 -3 4 -12 1 -19z m423 -13 c0 -8 -2 -15 -4 -15 -2 0 -6 7 -10 15
-3 8 -1 15 4 15 6 0 10 -7 10 -15z m-2566 -10 c-7 -16 -24 -21 -24 -6 0 8 7
13 27 20 1 1 0 -6 -3 -14z m696 -25 c-12 -12 -20 -16 -16 -9 3 8 9 22 12 32 4
12 10 15 16 9 7 -7 2 -18 -12 -32z m-228 8 c-7 -7 -12 -8 -12 -2 0 14 12 26
19 19 2 -3 -1 -11 -7 -17z m2158 12 c0 -5 -2 -10 -4 -10 -3 0 -8 5 -11 10 -3
6 -1 10 4 10 6 0 11 -4 11 -10z m-281 -44 c-1 -12 3 -34 9 -49 7 -16 12 -33
12 -38 0 -5 4 -17 9 -27 9 -15 32 -120 51 -230 8 -48 -5 -68 -15 -22 -5 24 -9
27 -19 17 -9 -9 -11 -28 -5 -67 10 -76 11 -102 0 -96 -5 3 -11 18 -14 33 -3
16 -8 39 -12 53 -4 14 -8 41 -10 60 -2 34 -35 109 -35 81 0 -11 -3 -12 -11 -4
-8 8 -49 152 -49 172 1 15 21 -28 31 -64 6 -26 18 -44 34 -51 22 -11 25 -9 38
25 15 37 12 75 -4 50 -10 -17 -24 -4 -25 24 0 12 -9 50 -19 84 -14 51 -15 66
-5 78 16 20 42 1 39 -29z m-2115 11 c5 5 6 -1 4 -12 -2 -14 -10 -19 -26 -17
-16 2 -22 -2 -22 -17 0 -11 -4 -23 -10 -26 -5 -3 -10 -14 -10 -23 0 -9 -6 -29
-14 -43 -7 -15 -11 -39 -9 -53 3 -15 1 -26 -6 -26 -6 0 -11 -4 -11 -10 0 -5 7
-7 16 -3 22 8 15 -42 -12 -87 -12 -19 -24 -47 -28 -62 -3 -15 -12 -33 -19 -40
-8 -7 -17 -26 -21 -41 -8 -33 -23 -35 -29 -4 -3 15 -5 12 -7 -13 l-2 -35 -9
35 c-13 51 -3 100 21 100 14 0 20 7 20 24 0 14 4 36 10 50 7 20 6 26 -4 26 -8
0 -17 6 -19 13 -3 6 -6 2 -6 -10 -1 -13 -5 -23 -11 -23 -13 0 -28 32 -22 49 3
8 0 11 -7 7 -6 -4 -11 -2 -11 3 0 6 5 11 12 11 6 0 9 3 5 6 -7 8 13 66 30 82
7 7 16 25 19 40 4 15 11 33 17 40 12 15 49 16 64 1 15 -15 33 -3 33 22 0 11 5
29 11 40 10 19 12 19 28 5 10 -9 21 -13 25 -9z m2362 -14 c-8 -8 -36 10 -36
25 0 13 3 12 20 -3 11 -10 18 -20 16 -22z m-1740 -38 c-14 -31 -30 -33 -22 -2
3 12 6 31 6 42 1 19 1 19 14 2 11 -14 11 -23 2 -42z m121 33 c-3 -8 -6 -5 -6
6 -1 11 2 17 5 13 3 -3 4 -12 1 -19z m1511 -7 c8 -23 7 -31 -4 -35 -10 -4 -14
2 -14 19 0 14 -3 24 -7 24 -20 -3 -26 2 -13 11 23 15 27 12 38 -19z m-2139
-23 c-6 -18 -15 -42 -20 -53 -23 -52 -29 -78 -20 -89 6 -7 4 -27 -6 -54 -11
-34 -12 -47 -2 -58 10 -12 9 -13 -5 -8 -10 4 -16 1 -16 -9 0 -8 -7 -18 -16
-21 -8 -3 -12 -10 -9 -16 3 -6 -1 -13 -9 -16 -9 -3 -13 -10 -11 -15 9 -13 -25
-59 -44 -59 -13 0 -16 8 -13 43 l3 42 -16 -28 c-9 -15 -13 -32 -10 -37 3 -6 2
-10 -4 -10 -16 0 -24 20 -12 33 5 7 15 35 21 62 6 28 13 57 17 65 3 8 7 20 7
25 2 18 40 74 53 80 8 2 11 0 8 -5 -10 -17 1 -11 28 14 27 25 41 73 20 69 -7
-2 -13 2 -13 8 0 6 7 8 16 5 11 -4 19 4 30 29 18 45 37 47 23 3z m1841 22 c0
-5 -2 -10 -4 -10 -3 0 -8 5 -11 10 -3 6 -1 10 4 10 6 0 11 -4 11 -10z m-1704
-37 l7 -37 20 25 20 24 -7 -40 c-25 -143 -56 -277 -67 -289 -5 -6 -9 -24 -10
-40 0 -17 -3 -25 -6 -18 -3 8 3 57 13 109 17 90 17 96 1 108 -14 10 -17 24
-13 69 3 31 1 56 -5 56 -5 0 -9 -12 -9 -26 0 -14 -4 -23 -8 -20 -5 3 -6 -9 -4
-26 3 -19 1 -28 -5 -25 -6 4 -8 -3 -6 -16 2 -12 -1 -42 -7 -67 -7 -25 -12 -53
-13 -62 -1 -10 -8 -18 -16 -18 -11 0 -12 10 -7 46 16 120 73 305 76 249 1 -16
4 -14 12 8 13 37 26 34 34 -10z m97 -3 c-4 -24 -2 -40 5 -40 6 0 5 -17 -4 -47
-8 -27 -12 -58 -9 -70 4 -17 1 -23 -10 -23 -9 0 -14 4 -11 9 4 5 1 11 -5 13
-21 7 15 198 36 198 2 0 1 -18 -2 -40z m308 17 c-10 -9 -11 -8 -5 6 3 10 9 15
12 12 3 -3 0 -11 -7 -18z m236 1 c-3 -8 -6 -5 -6 6 -1 11 2 17 5 13 3 -3 4
-12 1 -19z m271 -20 c2 -63 7 -110 16 -133 15 -38 15 -44 0 -59 -13 -13 -12
-16 1 -23 12 -7 12 -10 -4 -20 -15 -10 -22 -8 -39 11 -13 16 -17 28 -11 37 13
21 11 39 -6 39 -8 0 -15 7 -15 16 0 8 -4 13 -9 10 -5 -4 -7 3 -4 15 4 12 11
18 20 15 18 -7 29 22 15 44 -8 13 -7 26 6 54 9 20 19 36 23 36 3 0 7 -19 7
-42z m1017 32 c3 -5 -1 -10 -9 -10 -9 0 -16 5 -16 10 0 6 4 10 9 10 6 0 13 -4
16 -10z m-1438 -42 c-3 -7 -5 -2 -5 12 0 14 2 19 5 13 2 -7 2 -19 0 -25z m270
0 c-3 -7 -5 -2 -5 12 0 14 2 19 5 13 2 -7 2 -19 0 -25z m960 -15 c-3 -10 -5
-2 -5 17 0 19 2 27 5 18 2 -10 2 -26 0 -35z m-1292 -32 c-4 -28 -11 -49 -15
-46 -5 3 -12 0 -16 -6 -11 -18 -24 12 -13 32 5 10 9 27 9 38 0 12 5 21 10 21
6 0 10 8 10 17 0 12 3 14 11 6 7 -7 9 -29 4 -62z m91 32 c-11 -11 -19 6 -11
24 8 17 8 17 12 0 3 -10 2 -21 -1 -24z m1469 -18 c32 -31 35 -32 35 -13 0 33
19 9 25 -32 3 -19 3 -29 -1 -22 -3 6 -10 9 -15 6 -6 -4 -6 -11 1 -19 6 -8 10
-33 8 -57 l-4 -43 -8 43 c-5 23 -13 42 -18 42 -5 0 -6 5 -3 10 3 6 1 10 -4 10
-6 0 -11 11 -11 25 0 14 -4 25 -10 25 -5 0 -10 6 -10 14 0 8 -7 16 -15 20 -14
5 -22 26 -10 26 3 0 21 -16 40 -35z m-1827 -21 l-1 -47 -13 33 c-17 39 -17 43
-4 35 6 -3 10 1 10 9 0 9 2 16 5 16 2 0 4 -21 3 -46z m202 40 c0 -4 -5 -25
-12 -47 -9 -31 -13 -35 -19 -21 -7 22 8 74 22 74 5 0 9 -3 9 -6z m1034 -10 c3
-8 2 -12 -4 -9 -6 3 -10 10 -10 16 0 14 7 11 14 -7z m-834 -36 c-1 -35 -3 -40
-11 -25 -10 17 -5 67 6 67 3 0 5 -19 5 -42z m930 32 c0 -5 -5 -10 -11 -10 -5
0 -7 5 -4 10 3 6 8 10 11 10 2 0 4 -4 4 -10z m-1273 -22 c-3 -8 -6 -5 -6 6 -1
11 2 17 5 13 3 -3 4 -12 1 -19z m424 -54 l-9 -39 -1 50 c-1 33 2 46 9 39 7 -7
7 -24 1 -50z m440 12 c5 -6 11 -3 15 7 5 13 10 14 25 6 10 -5 19 -15 19 -22 0
-17 39 -49 50 -42 6 4 10 13 10 21 0 23 25 11 28 -14 2 -12 9 -22 15 -22 7 0
13 -16 14 -35 1 -24 10 -42 28 -58 35 -29 60 -116 39 -133 -8 -6 -14 -24 -14
-40 0 -22 3 -26 10 -14 5 8 10 11 10 5 0 -31 -37 -52 -52 -30 -5 6 -8 3 -8 -7
0 -9 6 -18 13 -21 6 -2 9 -8 5 -12 -4 -4 -15 -5 -24 -1 -11 4 -14 13 -10 30 9
35 -10 42 -30 11 -23 -35 -50 -32 -63 6 -6 18 -11 40 -11 50 0 11 -7 19 -15
19 -9 0 -20 10 -25 23 -8 20 -9 20 -9 -8 -1 -17 4 -36 10 -42 6 -6 9 -19 7
-29 -8 -39 -30 28 -33 100 -2 39 -9 85 -16 101 -7 17 -13 37 -14 46 -1 9 -5
22 -9 28 -4 7 -2 19 6 28 9 12 10 17 2 20 -11 4 -10 28 3 63 5 12 7 10 11 -5
2 -11 8 -24 13 -29z m-301 -29 c0 -24 -3 -28 -10 -17 -13 20 -13 63 0 55 6 -3
10 -21 10 -38z m634 21 c3 -13 5 -32 5 -43 0 -16 -4 -13 -14 10 -8 17 -14 36
-15 43 0 21 17 13 24 -10z m49 -50 c-3 -29 -12 -61 -21 -70 -8 -10 -12 -25 -8
-34 6 -15 4 -15 -11 -3 -10 7 -20 15 -22 16 -2 2 3 11 11 20 19 22 40 82 32
94 -6 11 4 29 16 29 5 0 6 -24 3 -52z m495 21 c-3 -8 -7 -3 -11 10 -4 17 -3
21 5 13 5 -5 8 -16 6 -23z m-1779 -56 c-2 -49 -22 -153 -31 -153 -4 0 -8 -7
-8 -15 0 -8 -4 -15 -9 -15 -8 0 -6 55 5 126 2 18 11 38 20 45 10 8 13 22 9 43
-5 24 -3 27 5 14 5 -9 10 -29 9 -45z m1321 17 c0 -11 -4 -20 -10 -20 -5 0 -10
9 -10 20 0 11 5 20 10 20 6 0 10 -9 10 -20z m-941 -43 c-8 -18 -8 -30 1 -47
10 -18 9 -24 -1 -31 -11 -7 -15 4 -19 49 -3 31 -1 62 5 68 16 19 27 -11 14
-39z m-2024 30 c11 -11 10 -18 -6 -38 l-19 -24 0 38 c0 40 4 44 25 24z m2204
-52 c-4 -6 -6 -35 -3 -65 4 -39 2 -51 -5 -40 -6 8 -10 31 -9 50 0 19 -2 50 -7
69 -5 24 -3 36 6 42 10 6 16 1 20 -19 3 -15 2 -32 -2 -37z m981 55 c0 -5 -4
-10 -10 -10 -5 0 -10 5 -10 10 0 6 5 10 10 10 6 0 10 -4 10 -10z m-2210 -17
c-1 -24 -14 -52 -22 -47 -5 3 -6 -5 -2 -20 4 -19 2 -28 -10 -32 -9 -3 -16 -12
-16 -20 0 -8 -5 -14 -11 -14 -5 0 -8 4 -5 9 4 5 0 12 -6 15 -9 3 -8 8 5 16 9
6 17 23 17 37 0 15 7 35 17 45 17 18 33 24 33 11z m2555 -47 c4 -49 -9 -71
-19 -32 -6 24 3 90 11 82 2 -2 6 -25 8 -50z m-1020 8 c20 -47 20 -78 0 -44 -8
14 -14 33 -15 43 0 9 -5 17 -11 17 -5 0 -7 5 -4 10 10 16 14 12 30 -26z m684
10 c3 -16 1 -17 -13 -5 -19 16 -21 34 -3 29 6 -3 14 -13 16 -24z m-1639 12 c0
-3 -4 -8 -10 -11 -5 -3 -10 -1 -10 4 0 6 5 11 10 11 6 0 10 -2 10 -4z m700
-20 c0 -3 -4 -8 -10 -11 -5 -3 -10 -1 -10 4 0 6 5 11 10 11 6 0 10 -2 10 -4z
m697 -15 c3 -11 10 -22 17 -24 6 -2 3 -3 -6 -2 -10 2 -21 -1 -24 -6 -10 -16
-22 -9 -26 16 -7 35 30 50 39 16z m303 -7 c0 -8 -4 -14 -10 -14 -5 0 -10 9
-10 21 0 11 5 17 10 14 6 -3 10 -13 10 -21z m-853 -14 c-1 -11 -7 -20 -14 -20
-14 0 -18 22 -6 33 12 13 22 7 20 -13z m-2553 -15 c-4 -8 -8 -15 -10 -15 -2 0
-4 7 -4 15 0 8 4 15 10 15 5 0 7 -7 4 -15z m3353 -22 c-3 -10 -5 -4 -5 12 0
17 2 24 5 18 2 -7 2 -21 0 -30z m-3327 -6 c0 -23 -5 -34 -15 -34 -17 0 -19 20
-5 48 15 27 20 24 20 -14z m30 3 c0 -11 -4 -20 -10 -20 -5 0 -10 9 -10 20 0
11 5 20 10 20 6 0 10 -9 10 -20z m2350 10 c0 -5 -2 -10 -4 -10 -3 0 -8 5 -11
10 -3 6 -1 10 4 10 6 0 11 -4 11 -10z m629 -32 c-1 -24 -8 -58 -15 -77 -8 -18
-16 -63 -19 -100 -7 -91 -20 -150 -29 -130 -7 16 28 230 40 251 4 6 7 27 6 46
-1 33 4 52 14 52 2 0 3 -19 3 -42z m384 20 c6 -21 2 -36 -7 -27 -10 11 -16 49
-8 49 5 0 12 -10 15 -22z m42 13 c3 -5 1 -12 -5 -16 -5 -3 -10 1 -10 9 0 18 6
21 15 7z m-3255 -8 c-1 -15 -30 -46 -37 -40 -3 4 2 16 12 27 19 21 25 24 25
13z m2910 -14 c0 -6 -4 -7 -10 -4 -5 3 -10 11 -10 16 0 6 5 7 10 4 6 -3 10
-11 10 -16z m-50 -9 c0 -5 -5 -10 -11 -10 -5 0 -7 5 -4 10 3 6 8 10 11 10 2 0
4 -4 4 -10z m135 -40 c3 -6 -1 -13 -9 -16 -9 -3 -14 -9 -12 -13 3 -4 1 -13 -5
-21 -6 -11 -9 -7 -9 16 0 40 19 59 35 34z m-3199 -32 c-4 -18 -13 -39 -20 -47
-13 -12 -13 -8 -6 25 5 21 10 42 10 47 0 4 5 7 11 7 8 0 9 -11 5 -32z m103 -2
c-13 -28 -29 -35 -29 -12 0 15 30 50 37 43 2 -3 -2 -16 -8 -31z m2987 -8 c-2
-24 -9 -54 -14 -68 -8 -21 -10 -17 -14 30 -3 33 -1 59 6 66 20 23 26 15 22
-28z m124 -10 c0 -18 -2 -20 -9 -8 -6 8 -7 18 -5 22 9 14 14 9 14 -14z m-456
-84 c3 -8 2 -12 -4 -9 -6 3 -10 10 -10 16 0 14 7 11 14 -7z m221 -164 c3 -5 1
-10 -4 -10 -6 0 -11 5 -11 10 0 6 2 10 4 10 3 0 8 -4 11 -10z m-5 -45 c0 -14
-4 -25 -10 -25 -8 0 -8 23 -1 48 4 12 11 -3 11 -23z m950 -858 c11 -5 9 -6 -4
-4 -11 1 -21 9 -23 17 -3 10 -2 11 4 4 4 -6 15 -14 23 -17z m-4233 -59 c-2
-13 -4 -3 -4 22 0 25 2 35 4 23 2 -13 2 -33 0 -45z m2353 -90 c0 -21 -30 -4
-44 24 -22 43 -20 44 14 11 17 -15 30 -31 30 -35z m-2363 -63 c-2 -118 -17
-145 -17 -31 0 69 8 136 16 136 2 0 3 -47 1 -105z m2273 75 c0 -5 -4 -10 -9
-10 -6 0 -13 5 -16 10 -3 6 1 10 9 10 9 0 16 -4 16 -10z m1836 -50 c-1 -28 0
-52 2 -55 8 -8 31 15 28 28 -1 7 -1 9 1 5 8 -13 23 -9 23 6 0 8 4 18 10 21 7
4 7 -3 0 -20 -6 -15 -10 -44 -10 -66 0 -45 -5 -48 -30 -16 -17 20 -19 20 -25
5 -12 -31 -21 -19 -19 24 1 22 -1 35 -6 29 -4 -7 -11 -12 -16 -12 -5 0 -9 -6
-9 -13 0 -21 -14 -31 -20 -15 -7 20 9 74 23 75 7 1 16 2 21 3 5 0 12 12 15 26
10 40 16 29 12 -25z m-79 18 c-3 -8 -6 -5 -6 6 -1 11 2 17 5 13 3 -3 4 -12 1
-19z m-1619 -13 c12 -14 22 -28 22 -30 0 -10 35 -42 53 -48 9 -4 17 -11 17
-17 0 -6 -4 -8 -10 -5 -11 7 -2 -23 13 -43 8 -10 12 -10 18 -1 5 9 12 10 21 3
7 -5 27 -11 43 -13 31 -3 95 -60 95 -85 0 -9 9 -12 25 -9 14 3 31 -1 40 -11 9
-9 23 -16 32 -16 13 0 14 -8 9 -42 -4 -33 -3 -39 5 -25 5 9 22 17 36 17 25 0
25 -1 9 -13 -17 -12 -16 -15 15 -41 29 -25 31 -29 16 -37 -16 -9 -16 -11 2
-30 10 -11 21 -37 25 -58 5 -32 11 -39 38 -47 29 -9 33 -14 34 -47 1 -21 4
-41 8 -45 4 -4 31 -7 59 -7 43 0 56 -4 74 -25 16 -18 23 -21 24 -10 0 10 2 11
6 3 3 -8 24 -13 57 -13 30 0 61 -6 73 -15 16 -11 22 -12 26 -2 3 9 7 9 18 1 8
-6 25 -15 39 -18 18 -6 21 -5 10 3 -23 16 -3 26 26 12 60 -27 204 -25 204 2 0
21 22 38 35 27 6 -5 27 -5 50 0 22 5 60 12 85 15 25 4 50 11 56 16 7 5 31 15
55 22 52 15 67 40 18 30 -44 -9 -32 7 30 37 28 14 51 28 51 33 0 4 7 7 15 7 8
0 15 5 15 10 0 6 6 10 13 9 29 -4 48 2 66 20 11 11 29 25 41 31 11 6 17 16 14
22 -5 8 -1 9 10 5 13 -5 19 -1 23 12 3 14 17 22 45 26 26 5 38 11 34 20 -3 9
2 11 15 8 10 -3 20 0 20 6 1 6 2 16 3 23 0 6 29 21 62 33 55 18 60 23 49 38
-7 9 -24 17 -38 17 -36 0 -38 9 -19 63 17 47 35 66 24 25 -4 -16 -2 -20 10
-15 10 3 20 -3 28 -19 8 -13 17 -24 22 -24 4 0 8 -7 8 -15 0 -26 30 -75 45
-75 8 0 15 -4 15 -10 0 -5 7 -10 16 -10 10 0 14 -5 10 -16 -3 -8 -2 -12 4 -9
14 9 12 -19 -2 -34 -11 -10 -10 -11 3 -6 10 4 19 0 22 -9 4 -10 1 -16 -8 -16
-8 0 -15 -3 -15 -7 0 -12 16 -35 26 -36 5 -1 8 -10 7 -20 -2 -10 2 -15 7 -12
14 9 12 -11 -2 -35 -9 -15 -10 -23 -2 -28 6 -4 14 -29 17 -57 4 -27 16 -102
27 -165 19 -104 23 -196 18 -410 0 -14 1 -32 3 -40 2 -8 0 -14 -6 -13 -5 1
-11 -17 -12 -40 -1 -23 -4 -109 -7 -192 -8 -216 -34 -417 -60 -460 -7 -11 -18
-46 -25 -77 -7 -31 -19 -62 -27 -68 -7 -7 -14 -19 -14 -27 0 -7 -7 -16 -16
-20 -11 -4 -12 -8 -4 -13 8 -5 8 -14 -1 -33 -7 -15 -15 -27 -19 -27 -4 0 -11
-16 -15 -36 -5 -27 -9 -34 -18 -25 -18 18 -29 13 -17 -8 14 -27 13 -31 -6 -24
-13 5 -15 2 -10 -14 5 -14 1 -23 -10 -27 -11 -4 -14 -13 -11 -27 6 -21 -29
-67 -46 -61 -5 1 -6 -2 -2 -8 4 -6 1 -17 -5 -25 -6 -8 -9 -19 -5 -25 8 -13 -3
-50 -15 -50 -6 0 -6 10 0 25 6 16 6 25 0 25 -6 0 -10 -7 -10 -15 0 -8 -5 -15
-11 -15 -5 0 -7 -5 -4 -10 4 -6 -7 -23 -23 -38 -17 -15 -33 -42 -37 -59 -4
-18 -11 -33 -15 -33 -5 0 -7 -7 -4 -15 4 -10 0 -15 -14 -15 -15 0 -19 -6 -16
-27 2 -16 1 -20 -2 -10 -7 21 -24 13 -24 -12 0 -32 -26 -54 -73 -61 -54 -8
-63 -3 -41 21 23 25 11 71 -17 67 -15 -2 -26 -18 -38 -55 -10 -29 -15 -55 -12
-59 3 -3 -2 -10 -12 -15 -9 -6 -17 -21 -17 -34 0 -14 -5 -25 -10 -25 -6 0 -10
-6 -8 -12 3 -20 -12 -58 -33 -79 -10 -10 -19 -26 -19 -34 0 -8 -4 -15 -10 -15
-5 0 -10 -9 -10 -20 0 -11 -7 -23 -15 -26 -8 -4 -15 -11 -15 -18 0 -6 -16 -29
-35 -50 -19 -22 -35 -46 -35 -53 0 -8 -6 -13 -14 -11 -8 2 -16 -1 -17 -7 -1
-5 -16 -20 -32 -32 -17 -13 -24 -23 -16 -23 8 0 -1 -10 -18 -21 -18 -12 -33
-26 -33 -33 0 -7 -16 -18 -36 -25 -20 -7 -45 -22 -55 -32 -11 -11 -25 -17 -31
-13 -7 4 -8 3 -4 -5 6 -9 0 -10 -20 -5 -19 5 -25 4 -20 -5 5 -7 0 -11 -13 -11
-12 0 -21 -5 -21 -11 0 -7 -10 -9 -24 -5 -14 3 -28 2 -31 -4 -3 -5 2 -10 12
-10 10 -1 -7 -10 -37 -20 -30 -11 -62 -18 -70 -14 -17 6 -26 3 -23 -8 2 -5 -6
-8 -16 -8 -11 0 -28 -3 -38 -6 -15 -5 -15 -4 -3 5 13 9 13 11 -1 11 -9 0 -19
-7 -23 -15 -3 -8 -13 -15 -23 -14 -11 0 -13 3 -5 6 6 2 12 11 12 20 0 12 -8
13 -42 8 -24 -4 -54 -14 -67 -22 -13 -8 -21 -11 -17 -5 3 5 0 15 -8 21 -15 13
-65 -1 -78 -22 -4 -7 -27 -13 -50 -13 -24 -1 -56 -7 -73 -13 -22 -9 -41 -9
-73 -1 -24 6 -46 9 -50 6 -7 -4 -106 16 -157 32 -46 15 -125 55 -125 64 0 4
-7 8 -15 8 -8 0 -31 11 -51 25 -20 14 -42 25 -48 25 -6 0 -26 13 -44 29 -17
17 -32 27 -32 24 0 -3 -12 12 -26 33 -31 46 -59 74 -74 74 -5 0 -10 7 -10 15
0 8 -4 15 -9 15 -5 0 -12 11 -15 25 -4 14 -11 25 -17 25 -16 0 -40 27 -37 42
2 7 -5 12 -14 12 -10 -1 -16 2 -13 6 2 4 -6 16 -19 27 -22 20 -24 20 -47 2
-27 -20 -58 -7 -39 16 8 10 6 15 -9 20 -12 3 -21 13 -21 21 0 8 -4 14 -10 14
-5 0 -10 -6 -10 -12 0 -7 -11 0 -25 16 -14 16 -25 33 -25 37 0 4 -10 9 -22 11
-17 2 -24 11 -26 31 -3 22 -6 26 -17 17 -11 -9 -12 -7 -8 9 4 15 -1 20 -19 23
-15 2 -22 9 -20 21 2 10 -3 17 -13 17 -9 0 -15 9 -15 23 0 14 -3 18 -8 10 -6
-9 -13 -4 -25 17 -10 16 -18 33 -18 37 -1 5 -5 7 -9 6 -4 -1 -11 10 -15 24 -3
15 -15 33 -26 41 -10 7 -19 20 -19 28 0 8 -7 17 -15 20 -8 4 -15 12 -15 20 0
8 -4 14 -10 14 -5 0 -10 6 -10 14 0 8 -11 23 -25 34 -14 11 -25 29 -25 41 0
15 -4 19 -16 14 -13 -5 -15 -2 -10 14 4 14 1 23 -9 27 -8 3 -15 16 -15 28 0
17 -3 19 -9 9 -6 -10 -13 -5 -25 19 -9 18 -16 38 -16 45 0 7 -9 20 -20 30 -11
10 -17 21 -14 26 3 5 -2 20 -11 33 -9 14 -14 30 -10 35 3 7 0 8 -9 5 -12 -5
-16 0 -16 20 0 14 -5 26 -11 26 -6 0 -9 9 -6 20 3 11 1 22 -4 25 -4 3 -6 12
-3 19 3 8 1 17 -5 21 -14 8 -14 35 0 35 5 0 7 -6 3 -12 -6 -10 -3 -9 8 0 14
11 21 11 42 -3 16 -11 26 -13 26 -6 0 6 -7 11 -14 11 -13 0 -13 5 1 37 10 26
12 38 4 41 -6 2 -11 8 -11 14 0 6 -11 21 -25 34 -14 13 -25 30 -25 37 0 8 -17
22 -37 30 -21 9 -30 16 -20 16 9 1 17 5 17 10 0 17 -20 23 -35 11 -18 -15 -31
6 -15 25 9 11 7 17 -9 27 -12 7 -21 18 -21 25 0 6 -3 13 -7 15 -14 6 -54 88
-43 88 5 0 10 5 10 10 0 6 -7 10 -16 10 -11 0 -13 6 -9 19 3 11 1 22 -5 26 -7
4 -9 18 -6 31 4 14 2 24 -4 24 -5 0 -10 11 -10 24 0 14 -5 28 -11 32 -6 3 -9
17 -6 30 2 13 0 25 -5 26 -14 5 -22 258 -8 258 7 0 9 8 5 19 -4 13 2 28 16 42
15 15 24 18 27 11 9 -29 17 -7 18 51 2 82 16 117 48 117 13 0 27 -6 30 -12 3
-7 3 -3 0 10 -6 23 13 31 32 12 11 -11 64 8 64 23 0 4 5 7 10 7 7 0 7 -6 1
-17 -8 -16 -3 -18 57 -15 62 4 65 3 52 -14 -14 -15 -13 -16 8 -10 16 5 22 4
20 -6 -2 -8 5 -12 17 -11 11 2 55 5 97 7 65 3 76 1 71 -12 -6 -13 6 -14 90 -8
53 4 111 11 128 16 21 6 37 6 45 -1 9 -7 27 -2 63 17 28 14 51 30 51 34 0 8
49 20 82 21 9 0 19 7 22 15 3 8 18 14 35 14 17 0 31 6 35 16 5 13 9 14 21 4
12 -10 18 -10 30 0 8 6 19 9 25 5 5 -3 10 1 10 9 0 9 7 16 15 16 9 0 18 6 21
14 3 8 16 17 30 20 13 4 24 13 24 21 0 8 4 15 10 15 5 0 13 12 16 28 4 15 11
33 17 40 14 17 9 129 -6 154 -10 15 -9 20 3 28 13 8 13 11 -2 27 -11 11 -18
13 -18 5 0 -7 -5 -12 -11 -12 -5 0 -8 4 -4 9 6 10 -14 62 -28 72 -5 4 2 7 17
7 14 0 25 -3 24 -7 -2 -11 15 -44 34 -63 25 -25 23 0 -2 32 -22 28 -26 60 -7
60 8 0 9 3 1 8 -18 12 -36 52 -24 52 6 0 13 -7 16 -15 4 -8 10 -15 16 -15 5 0
21 -14 35 -30 14 -17 28 -29 31 -26 6 7 -27 59 -45 69 -19 12 -16 27 7 35 19
7 18 10 -19 47 -23 22 -41 44 -41 50 0 5 5 4 12 -3 7 -7 17 -12 22 -12 6 0 5
5 -2 12 -7 7 -12 16 -12 21 0 14 21 -4 30 -27 8 -18 9 -18 9 -3 1 11 -8 30
-19 44 -24 30 -27 49 -5 31 39 -32 45 -41 45 -59 0 -10 4 -19 9 -19 6 0 11
-15 13 -32 2 -18 8 -31 13 -28 12 6 7 54 -6 58 -21 8 -7 24 16 18 29 -7 34 10
6 19 -11 3 -23 15 -26 26 -4 10 -11 19 -16 19 -13 0 -35 21 -37 35 -1 6 -9 18
-17 28 -14 16 -20 37 -10 37 2 0 16 -5 30 -12 25 -11 29 -18 26 -50 -1 -10 2
-18 8 -18 5 0 8 20 7 45 -1 25 0 45 4 45 3 0 16 -11 28 -25z m1833 -80 c-1
-16 -8 -34 -15 -38 -6 -5 0 -5 14 -1 14 4 36 7 49 6 17 -1 22 2 17 13 -3 9 0
15 10 15 11 0 12 -4 4 -19 -7 -13 -7 -22 0 -26 22 -14 10 -35 -20 -35 -17 0
-33 -6 -36 -14 -6 -15 -53 24 -72 61 -18 32 1 75 31 71 18 -2 21 -8 18 -33z
m-91 -65 c0 -5 -5 -10 -11 -10 -5 0 -7 5 -4 10 3 6 8 10 11 10 2 0 4 -4 4 -10z
m-2005 -124 c22 -19 36 -38 32 -42 -4 -4 -7 -2 -7 4 0 7 -7 12 -15 12 -8 0
-15 4 -15 8 0 5 -11 15 -25 22 -14 7 -25 17 -25 22 0 15 15 8 55 -26z m1685
14 c5 0 14 -9 20 -19 8 -16 4 -22 -29 -39 -22 -12 -42 -18 -45 -15 -10 10 -7
43 5 43 5 0 7 5 4 10 -3 6 -1 10 5 10 6 0 8 5 4 12 -5 8 -2 9 10 5 10 -4 22
-7 26 -7z m460 -11 c0 -6 -4 -7 -10 -4 -5 3 -10 11 -10 16 0 6 5 7 10 4 6 -3
10 -11 10 -16z m180 1 c0 -5 -5 -10 -11 -10 -5 0 -7 5 -4 10 3 6 8 10 11 10 2
0 4 -4 4 -10z m-2448 -7 c-6 -2 -9 -10 -6 -15 4 -7 2 -8 -5 -4 -13 9 -5 26 12
25 9 0 8 -2 -1 -6z m2238 -3 c0 -5 -4 -10 -10 -10 -5 0 -10 5 -10 10 0 6 5 10
10 10 6 0 10 -4 10 -10z m-877 -61 c-4 -12 0 -25 8 -30 11 -7 10 -9 -4 -9 -23
0 -33 26 -17 45 17 20 19 19 13 -6z m-1993 -11 c0 -7 3 -24 7 -37 5 -20 3 -23
-10 -18 -10 4 -17 2 -17 -3 0 -6 -5 -10 -11 -10 -8 0 -8 5 1 15 7 8 9 22 6 31
-3 9 -4 20 0 25 8 13 24 11 24 -3z m-1580 -27 c0 -11 -4 -23 -10 -26 -6 -4
-10 5 -10 19 0 14 5 26 10 26 6 0 10 -9 10 -19z m4090 -71 c0 -5 7 -10 15 -10
8 0 15 -4 15 -9 0 -14 -26 -32 -34 -23 -4 4 -14 -2 -22 -12 -16 -23 -20 -21
-30 18 -6 25 -4 28 10 23 10 -4 19 -1 22 8 7 17 24 20 24 5z m-4020 -43 c-1
-30 -24 -76 -34 -66 -2 2 0 28 6 56 11 56 28 62 28 10z m3921 -7 c5 0 9 4 9
10 0 5 7 7 15 4 8 -4 15 -12 15 -20 0 -8 -6 -11 -17 -7 -11 4 -14 3 -9 -5 4
-7 1 -12 -9 -12 -9 0 -13 5 -10 10 3 6 1 10 -4 10 -6 0 -10 12 -10 28 2 23 2
24 6 5 2 -13 9 -23 14 -23z m-2141 -10 c0 -5 -2 -10 -4 -10 -3 0 -8 5 -11 10
-3 6 -1 10 4 10 6 0 11 -4 11 -10z m272 -26 c10 -9 -4 -44 -17 -44 -7 0 -12
11 -12 25 0 23 15 33 29 19z m-403 -44 c6 -22 16 -40 21 -40 5 0 7 -7 3 -16
-4 -12 -14 -14 -35 -10 -30 6 -86 44 -87 59 -1 9 59 47 75 47 6 0 16 -18 23
-40z m-872 -66 c-3 -3 -12 -4 -19 -1 -8 3 -5 6 6 6 11 1 17 -2 13 -5z m823
-138 c0 -8 6 -16 13 -19 6 -2 0 -6 -15 -9 -26 -5 -30 2 -19 40 3 9 21 -1 21
-12z m174 -19 c17 -12 17 -15 3 -29 -9 -9 -13 -18 -10 -22 4 -3 -11 -6 -33 -5
-31 0 -35 2 -19 9 15 7 16 9 4 9 -10 1 -19 12 -21 26 -5 22 -2 25 26 25 18 0
40 -6 50 -13z m-1814 -17 c0 -5 -4 -10 -10 -10 -5 0 -10 5 -10 10 0 6 5 10 10
10 6 0 10 -4 10 -10z m1710 -10 c0 -5 -7 -10 -15 -10 -8 0 -15 5 -15 10 0 6 7
10 15 10 8 0 15 -4 15 -10z m-1723 -42 c-3 -7 -5 -2 -5 12 0 14 2 19 5 13 2
-7 2 -19 0 -25z m-57 -18 c0 -5 -2 -10 -4 -10 -3 0 -8 5 -11 10 -3 6 -1 10 4
10 6 0 11 -4 11 -10z m6050 -142 c0 -19 -2 -20 -10 -8 -13 19 -13 30 0 30 6 0
10 -10 10 -22z m-6010 -154 c0 -28 -4 -35 -17 -32 -9 2 -16 6 -15 11 1 4 2 18
2 32 0 16 6 25 15 25 11 0 15 -11 15 -36z m-153 -66 c-3 -8 -6 -5 -6 6 -1 11
2 17 5 13 3 -3 4 -12 1 -19z m130 0 c-3 -8 -6 -5 -6 6 -1 11 2 17 5 13 3 -3 4
-12 1 -19z m-127 -55 c0 -7 -4 -13 -10 -13 -5 0 -10 12 -10 28 0 21 2 24 10
12 5 -8 10 -21 10 -27z m140 -4 c0 -12 -29 -24 -37 -16 -3 4 -3 13 0 21 6 16
37 11 37 -5z m-13 -50 c8 -8 8 -18 1 -35 -16 -34 -28 -30 -28 11 0 36 8 43 27
24z m-92 -131 c-9 -62 -11 -68 -32 -68 -12 0 -14 7 -9 38 3 20 6 47 6 60 0 16
6 22 21 22 19 0 20 -4 14 -52z m-20 -88 c3 -5 3 -15 -1 -21 -6 -11 -23 6 -24
24 0 10 18 9 25 -3z m6228 -74 c6 -16 -2 -28 -14 -20 -12 7 -11 34 0 34 5 0
11 -6 14 -14z m67 -31 c0 -19 -4 -35 -10 -35 -11 0 -13 30 -4 54 10 25 14 19
14 -19z m-6300 -5 c0 -5 -4 -10 -10 -10 -5 0 -10 5 -10 10 0 6 5 10 10 10 6 0
10 -4 10 -10z m194 -65 c3 -8 1 -15 -4 -15 -6 0 -10 7 -10 15 0 8 2 15 4 15 2
0 6 -7 10 -15z m6144 -169 c-3 -15 -5 -16 -23 -2 -17 13 -18 17 -5 25 18 12
33 -1 28 -23z m-6178 -242 c0 -8 -4 -12 -10 -9 -5 3 -10 10 -10 16 0 5 5 9 10
9 6 0 10 -7 10 -16z m10 -77 c0 -10 -4 -15 -10 -12 -5 3 -10 18 -10 33 0 21 2
24 10 12 5 -8 10 -23 10 -33z m37 -29 c-3 -8 -6 -5 -6 6 -1 11 2 17 5 13 3 -3
4 -12 1 -19z m26 -33 c7 -16 -8 -29 -23 -20 -15 9 -12 35 4 35 8 0 16 -7 19
-15z m5997 -156 c0 -14 -17 -10 -23 5 -4 10 -1 13 9 9 7 -3 14 -9 14 -14z
m-5972 -66 c1 -21 4 -50 7 -65 7 -32 -10 -46 -24 -20 -7 13 -7 22 0 29 7 7 2
13 -15 17 -17 4 -26 13 -26 27 0 16 4 19 21 14 16 -5 19 -4 14 5 -6 9 7 27 21
30 0 0 1 -17 2 -37z m522 -42 c-1 -10 -6 -7 -15 9 -19 33 -18 50 0 26 8 -11
15 -27 15 -35z m5529 -42 c-18 -11 -25 -1 -11 13 7 7 13 21 13 33 1 12 4 9 6
-9 3 -17 -1 -32 -8 -37z m-69 -9 c0 -17 -4 -30 -10 -30 -5 0 -10 11 -10 24 0
14 -4 28 -10 31 -20 12 -10 26 10 15 13 -7 20 -21 20 -40z m-6020 20 c0 -5 -5
-10 -11 -10 -5 0 -7 5 -4 10 3 6 8 10 11 10 2 0 4 -4 4 -10z m6008 -70 c4 3 8
-16 10 -42 2 -34 -1 -48 -10 -48 -10 0 -10 -2 0 -9 8 -5 15 -28 15 -55 2 -48
-1 -54 -21 -34 -7 7 -12 8 -12 4 0 -5 -7 -3 -15 4 -8 7 -12 17 -8 22 5 9 9 49
13 123 1 6 -2 24 -5 40 -6 29 -6 29 10 10 9 -11 19 -18 23 -15z m-5968 -1 c0
-6 -4 -7 -10 -4 -5 3 -10 11 -10 16 0 6 5 7 10 4 6 -3 10 -11 10 -16z m5878
-47 c2 -15 -2 -22 -12 -22 -11 0 -16 9 -16 26 0 31 23 28 28 -4z m-5778 -22
c0 -5 -2 -10 -4 -10 -3 0 -8 5 -11 10 -3 6 -1 10 4 10 6 0 11 -4 11 -10z
m5810 -70 c0 -30 5 -50 13 -53 9 -3 9 -7 1 -18 -6 -8 -12 -32 -12 -54 -1 -22
-8 -45 -16 -50 -8 -6 -12 -23 -11 -39 5 -40 12 -42 20 -7 5 23 11 30 27 28 11
-1 23 4 25 11 3 7 -1 10 -10 6 -19 -7 -34 16 -17 26 8 5 10 17 6 34 -4 15 -2
26 4 26 5 0 10 -6 10 -12 0 -7 5 -5 11 5 15 26 28 12 23 -25 -3 -18 -6 -46 -7
-63 -1 -16 -6 -36 -10 -43 -5 -7 -2 -19 8 -28 14 -15 14 -17 -2 -29 -15 -12
-19 -11 -25 5 -14 37 -23 27 -24 -26 0 -30 3 -54 8 -54 4 0 8 5 8 10 0 6 4 10
9 10 5 0 9 -16 8 -35 -1 -37 -6 -42 -25 -23 -9 9 -15 9 -24 0 -10 -10 -8 -14
10 -18 12 -4 22 -13 22 -21 0 -10 -6 -12 -22 -7 -31 9 -29 5 -32 71 -1 33 -6
64 -9 71 -4 6 -2 14 4 18 8 5 7 9 -2 15 -7 4 -13 24 -12 46 1 21 -3 46 -8 55
-6 12 -6 18 0 18 6 0 8 6 5 14 -3 8 0 24 6 36 9 16 9 25 1 29 -12 8 -4 78 10
87 5 3 9 14 9 25 0 11 5 17 10 14 6 -3 10 -28 10 -55z m155 21 c3 -5 1 -12 -5
-16 -5 -3 -10 1 -10 9 0 18 6 21 15 7z m-5897 -51 c11 -30 2 -47 -18 -35 -12
8 -13 65 -1 65 5 0 14 -13 19 -30z m3918 15 c-3 -8 -1 -15 4 -15 6 0 10 -5 10
-11 0 -5 -4 -8 -9 -5 -5 4 -11 0 -14 -6 -2 -7 -7 -10 -11 -7 -7 7 10 59 20 59
3 0 4 -7 0 -15z m-3986 -45 c0 -5 -2 -10 -4 -10 -3 0 -8 5 -11 10 -3 6 -1 10
4 10 6 0 11 -4 11 -10z m-4 -54 c-3 -11 -6 -25 -6 -29 0 -5 -4 -5 -10 -2 -5 3
-10 19 -10 35 0 23 4 28 16 23 10 -4 14 -13 10 -27z m5713 -28 c1 -5 -3 -8 -9
-8 -5 0 -10 12 -9 28 0 24 1 25 9 7 5 -11 9 -23 9 -27z m11 -63 c0 -8 -4 -15
-10 -15 -5 0 -10 7 -10 15 0 8 5 15 10 15 6 0 10 -7 10 -15z m-3816 -62 c-5
-5 -12 -12 -16 -18 -4 -6 -8 -2 -8 8 0 9 7 17 17 17 9 0 12 -3 7 -7z m36 -27
c0 -3 -4 -8 -10 -11 -5 -3 -10 -1 -10 4 0 6 5 11 10 11 6 0 10 -2 10 -4z m4
-47 c-6 -11 -24 -2 -24 11 0 5 7 7 15 4 8 -4 12 -10 9 -15z m-1694 -9 c0 -5
-2 -10 -4 -10 -3 0 -8 5 -11 10 -3 6 -1 10 4 10 6 0 11 -4 11 -10z m51 -67
c11 -30 3 -81 -11 -67 -5 5 -12 28 -16 52 -8 49 10 59 27 15z m69 -84 c0 -5
-4 -9 -10 -9 -5 0 -10 7 -10 16 0 8 5 12 10 9 6 -3 10 -10 10 -16z m-52 -17
c6 -18 -15 -14 -22 4 -4 10 -1 14 6 12 6 -2 14 -10 16 -16z m5747 -92 c4 -6
-5 -10 -20 -10 -15 0 -24 4 -20 10 3 6 12 10 20 10 8 0 17 -4 20 -10z m-3125
-90 c0 -5 -4 -10 -10 -10 -5 0 -10 5 -10 10 0 6 5 10 10 10 6 0 10 -4 10 -10z
m3264 -115 c-4 -8 -8 -15 -10 -15 -2 0 -4 7 -4 15 0 8 4 15 10 15 5 0 7 -7 4
-15z m176 -25 c0 -5 -4 -10 -10 -10 -5 0 -10 5 -10 10 0 6 5 10 10 10 6 0 10
-4 10 -10z m-6034 -58 c-15 -15 -16 -15 -16 4 0 28 24 52 28 28 2 -9 -3 -24
-12 -32z m5994 -18 c0 -8 -4 -12 -10 -9 -5 3 -10 10 -10 16 0 5 5 9 10 9 6 0
10 -7 10 -16z m40 -94 c0 -5 -4 -10 -10 -10 -5 0 -10 5 -10 10 0 6 5 10 10 10
6 0 10 -4 10 -10z m-6160 -344 c0 -2 -9 -6 -20 -9 -11 -3 -20 -1 -20 4 0 5 9
9 20 9 11 0 20 -2 20 -4z m-151 -50 c26 -9 31 -14 19 -19 -18 -6 -78 13 -78
25 0 11 18 9 59 -6z m-99 -94 c0 -13 -12 -22 -22 -16 -10 6 -1 24 13 24 5 0 9
-4 9 -8z m3 -93 c4 8 5 7 3 -1 -3 -14 -134 -28 -163 -17 -27 9 -1 17 46 15 33
-2 49 3 60 16 15 18 16 18 32 -3 11 -15 18 -18 22 -10z m94 -11 c-21 -7 -32
-7 -40 1 -8 8 0 11 29 10 39 -1 39 -1 11 -11z m53 2 c0 -5 -5 -10 -11 -10 -5
0 -7 5 -4 10 3 6 8 10 11 10 2 0 4 -4 4 -10z m3480 -261 c0 -6 -4 -7 -10 -4
-5 3 -10 11 -10 16 0 6 5 7 10 4 6 -3 10 -11 10 -16z m25 -70 c11 -17 -1 -21
-15 -4 -8 9 -8 15 -2 15 6 0 14 -5 17 -11z m35 -141 c0 -5 -10 -8 -21 -8 -18
0 -19 -2 -9 -15 10 -12 10 -15 -4 -15 -9 0 -16 5 -16 10 0 6 -7 10 -15 10 -8
0 -15 7 -15 15 0 9 6 12 15 9 8 -4 17 1 21 9 5 13 9 14 25 4 10 -6 19 -15 19
-19z m-3830 7 c-7 -8 -17 -12 -22 -9 -6 4 -5 10 3 15 22 14 33 10 19 -6z
m7060 -29 c0 -3 -4 -8 -10 -11 -5 -3 -10 -1 -10 4 0 6 5 11 10 11 6 0 10 -2
10 -4z m65 -14 c-3 -3 -11 0 -18 7 -9 10 -8 11 6 5 10 -3 15 -9 12 -12z m-21
-7 c19 -15 19 -15 -1 -15 -11 0 -23 7 -27 15 -7 19 3 19 28 0z m-3384 -25 c0
-5 -5 -10 -11 -10 -5 0 -7 5 -4 10 3 6 8 10 11 10 2 0 4 -4 4 -10z m-3905 -41
c-4 -36 -15 -51 -16 -23 0 18 -1 18 -9 -1 -7 -17 -9 -15 -9 11 -1 33 5 44 25
44 9 0 12 -10 9 -31z m7435 -64 c0 -8 -7 -15 -16 -15 -14 0 -14 3 -4 15 7 8
14 15 16 15 2 0 4 -7 4 -15z m-170 -15 c8 -5 11 -10 5 -10 -5 0 -17 5 -25 10
-8 5 -10 10 -5 10 6 0 17 -5 25 -10z m95 -50 c-3 -5 -13 -10 -21 -10 -8 0 -14
5 -14 10 0 6 9 10 21 10 11 0 17 -4 14 -10z m389 -36 c4 -11 1 -14 -11 -12 -9
2 -18 9 -21 16 -6 18 25 15 32 -4z m-3894 -40 c0 -8 -4 -12 -10 -9 -5 3 -10
10 -10 16 0 5 5 9 10 9 6 0 10 -7 10 -16z m3733 -21 c-7 -2 -19 -2 -25 0 -7 3
-2 5 12 5 14 0 19 -2 13 -5z m-3633 -23 c16 -16 17 -20 5 -20 -8 0 -15 5 -15
11 0 5 -4 8 -8 5 -5 -3 -9 1 -9 9 0 19 3 19 27 -5z m3747 -2 c-1 -11 -9 -18
-22 -18 -16 0 -17 2 -5 10 10 6 11 10 3 10 -7 0 -13 4 -13 9 0 6 9 9 19 8 12
-1 19 -8 18 -19z m-63 -3 c-5 -13 -9 -13 -23 -3 -9 7 -18 14 -20 15 -2 2 8 3
22 3 20 0 25 -4 21 -15z m136 -5 c8 -5 11 -12 8 -16 -4 -3 -14 1 -23 10 -18
17 -9 21 15 6z m120 -30 c0 -5 -4 -10 -10 -10 -5 0 -10 5 -10 10 0 6 5 10 10
10 6 0 10 -4 10 -10z m-480 -4 c0 -3 -4 -8 -10 -11 -5 -3 -10 -1 -10 4 0 6 5
11 10 11 6 0 10 -2 10 -4z m431 -82 c10 -12 10 -17 0 -23 -7 -5 -11 -12 -9
-17 1 -5 -8 -10 -22 -11 -27 -3 -68 22 -57 34 4 4 13 1 19 -5 7 -7 19 -12 28
-12 13 0 13 1 0 10 -10 6 -11 10 -2 10 6 0 12 7 12 15 0 19 14 19 31 -1z
m-4034 -30 c-9 -9 -28 6 -21 18 4 6 10 6 17 -1 6 -6 8 -13 4 -17z m3778 6 c3
-5 1 -10 -4 -10 -6 0 -11 5 -11 10 0 6 2 10 4 10 3 0 8 -4 11 -10z m-4695 -10
c0 -5 -2 -10 -4 -10 -3 0 -8 5 -11 10 -3 6 -1 10 4 10 6 0 11 -4 11 -10z
m4654 -6 c3 -8 11 -12 18 -8 8 5 9 0 5 -17 -4 -13 -7 -30 -7 -37 0 -7 -5 -10
-10 -7 -6 4 -8 15 -5 26 4 12 2 19 -7 19 -7 0 -20 5 -28 10 -13 9 -13 11 0 20
21 13 27 12 34 -6z m156 -28 c0 -3 -4 -8 -10 -11 -5 -3 -10 -1 -10 4 0 6 5 11
10 11 6 0 10 -2 10 -4z m130 -6 c0 -5 -2 -10 -4 -10 -3 0 -8 5 -11 10 -3 6 -1
10 4 10 6 0 11 -4 11 -10z m-373 -37 c-3 -10 -5 -4 -5 12 0 17 2 24 5 18 2 -7
2 -21 0 -30z m-22 -3 c-4 -12 0 -26 9 -36 21 -20 23 -72 2 -55 -11 9 -15 8
-20 -5 -4 -9 -9 -14 -12 -11 -3 3 1 15 8 27 10 18 10 24 1 27 -16 6 -17 45 -1
61 17 17 20 15 13 -8z m-7968 -112 c-38 -35 -44 -35 -44 1 0 26 3 28 38 27
l37 -1 -31 -27z m4323 22 c0 -5 -2 -10 -4 -10 -3 0 -8 5 -11 10 -3 6 -1 10 4
10 6 0 11 -4 11 -10z m-27 -33 c4 3 7 -6 7 -20 0 -15 -4 -27 -8 -27 -14 0 -32
24 -32 43 0 15 3 17 13 8 8 -6 17 -8 20 -4z m-4413 -31 c0 -3 -4 -8 -10 -11
-5 -3 -10 -1 -10 4 0 6 5 11 10 11 6 0 10 -2 10 -4z m75 -33 c-6 -38 -30 -67
-46 -57 -14 8 -10 34 6 40 8 4 15 14 15 23 0 20 8 31 23 31 5 0 6 -16 2 -37z
m8272 31 c-3 -3 -12 -4 -19 -1 -8 3 -5 6 6 6 11 1 17 -2 13 -5z m-8407 -30 c0
-8 -5 -12 -10 -9 -6 4 -8 11 -5 16 9 14 15 11 15 -7z m8380 -14 c0 -5 -7 -10
-16 -10 -8 0 -12 5 -9 10 3 6 10 10 16 10 5 0 9 -4 9 -10z m-52 -21 c10 -14
10 -18 -3 -23 -11 -4 -15 1 -15 21 0 14 1 24 3 22 1 -2 8 -11 15 -20z m-8308
-4 c0 -8 -4 -15 -10 -15 -5 0 -10 7 -10 15 0 8 5 15 10 15 6 0 10 -7 10 -15z
m8514 0 c3 -8 1 -15 -4 -15 -6 0 -10 7 -10 15 0 8 2 15 4 15 2 0 6 -7 10 -15z
m-4954 -70 c0 -18 7 -52 15 -76 l15 -44 -20 24 c-11 13 -20 31 -21 40 0 9 -4
37 -8 63 -6 39 -5 46 6 37 7 -6 13 -26 13 -44z m4813 48 c-7 -2 -19 -2 -25 0
-7 3 -2 5 12 5 14 0 19 -2 13 -5z m24 -15 c-3 -8 -6 -5 -6 6 -1 11 2 17 5 13
3 -3 4 -12 1 -19z m-167 -3 c0 -8 7 -15 15 -15 10 0 14 -10 13 -34 -1 -23 -5
-33 -14 -29 -7 2 -15 -5 -19 -17 -4 -12 -9 -19 -12 -16 -9 9 -21 99 -16 113 7
18 33 16 33 -2z m99 -22 c2 -2 -3 -3 -11 -3 -9 0 -19 7 -22 16 -6 15 -4 15 11
3 10 -7 20 -15 22 -16z m51 1 c0 -8 -4 -12 -10 -9 -5 3 -10 10 -10 16 0 5 5 9
10 9 6 0 10 -7 10 -16z m204 -19 c3 -8 1 -15 -4 -15 -6 0 -10 7 -10 15 0 8 2
15 4 15 2 0 6 -7 10 -15z m-7 -45 c7 0 13 -4 13 -10 0 -13 -6 -13 -33 3 -12 6
-23 12 -25 13 -1 1 1 9 5 19 6 17 7 17 16 -3 6 -12 16 -22 24 -22z m-8784 23
c-7 -2 -19 -2 -25 0 -7 3 -2 5 12 5 14 0 19 -2 13 -5z m187 -8 c0 -8 -7 -15
-15 -15 -13 0 -14 3 -3 15 16 18 18 18 18 0z m126 -33 c-4 -3 -12 0 -19 7 -9
9 -9 14 3 21 11 7 16 5 18 -6 2 -9 1 -18 -2 -22z m67 16 c5 -18 8 -19 21 -8 9
7 17 9 17 4 4 -32 3 -41 -11 -57 -13 -17 -13 -20 2 -28 24 -13 12 -48 -30 -86
-38 -35 -76 -43 -86 -18 -3 9 -12 15 -20 13 -19 -4 -62 45 -45 51 7 2 15 -1
17 -8 2 -6 8 -9 13 -5 5 3 9 0 9 -5 0 -19 27 -12 42 12 10 14 12 31 7 49 -6
22 -3 28 11 33 19 6 35 49 25 65 -4 6 0 10 8 10 8 0 17 -10 20 -22z m8176 -10
c1 -55 4 -60 28 -53 14 3 23 1 23 -6 0 -6 -9 -13 -21 -16 -12 -3 -18 -11 -15
-19 7 -19 -9 -18 -24 1 -18 21 -14 115 5 115 1 0 3 -10 4 -22z m45 -9 c-6 -11
-24 -2 -24 11 0 5 7 7 15 4 8 -4 12 -10 9 -15z m-8464 -19 c-14 -11 -30 -20
-35 -20 -13 0 -45 -36 -45 -50 0 -14 -81 -33 -92 -22 -11 11 24 36 66 46 16 4
30 15 33 26 3 11 14 20 24 20 10 0 21 5 24 10 3 6 16 10 28 10 22 0 22 -1 -3
-20z m185 0 c4 -6 -6 -10 -22 -10 -18 0 -23 -3 -15 -8 10 -7 8 -13 -6 -30 -22
-25 -42 -29 -42 -7 0 8 5 15 11 15 5 0 7 5 4 10 -4 6 -10 8 -15 5 -5 -3 -11
-1 -15 5 -3 5 3 10 14 10 12 0 21 5 21 10 0 6 13 10 29 10 17 0 33 -4 36 -10z
m8201 -76 c1 -8 -3 -17 -10 -20 -8 -3 -11 -15 -8 -30 2 -13 0 -24 -4 -24 -5 0
-10 19 -12 42 -1 23 -9 50 -17 58 -8 9 -12 19 -9 23 9 9 57 -31 60 -49z
m-8656 26 c0 -5 -2 -10 -4 -10 -3 0 -8 5 -11 10 -3 6 -1 10 4 10 6 0 11 -4 11
-10z m8851 -16 c8 -10 8 -14 0 -14 -6 0 -11 5 -11 10 0 6 -6 10 -14 10 -8 0
-17 4 -20 9 -9 14 32 1 45 -15z m63 -36 c-7 -11 -32 -10 -39 2 -11 18 5 30 25
18 10 -7 16 -16 14 -20z m-4204 8 c0 -21 -24 -36 -48 -29 -17 4 -22 1 -22 -13
0 -9 -3 -15 -6 -11 -3 3 -3 14 0 25 5 14 13 18 31 14 20 -3 24 -1 19 12 -4 11
-1 16 10 16 9 0 16 -6 16 -14z m-4650 -17 c0 -5 7 -9 16 -9 25 0 10 -25 -17
-28 -19 -3 -22 -1 -12 9 10 10 9 17 -4 31 -16 18 -16 18 0 12 9 -3 17 -10 17
-15z m240 -9 c0 -14 -15 -19 -29 -10 -17 10 -5 31 14 23 8 -3 15 -9 15 -13z
m-296 -2 c-5 -8 -2 -9 9 -5 10 3 17 2 17 -2 0 -11 -26 -21 -53 -20 -15 0 -17
2 -7 6 8 3 19 12 23 19 4 8 10 14 13 14 3 0 2 -5 -2 -12z m8795 -23 c2 -11 11
-25 20 -32 9 -7 11 -12 4 -13 -6 0 -15 5 -18 10 -3 6 -14 10 -24 10 -27 0 -44
23 -28 39 17 17 41 9 46 -14z m-9071 1 c-2 -5 -13 -10 -25 -11 -17 0 -19 2
-11 13 12 14 41 13 36 -2z m882 -42 c0 -2 -6 -1 -14 2 -9 4 -21 -6 -32 -28
-10 -18 -18 -35 -17 -38 0 -3 4 -15 8 -27 5 -20 3 -23 -19 -23 -16 0 -26 -6
-26 -15 0 -8 6 -15 13 -15 12 0 37 -44 37 -66 0 -7 -8 -20 -17 -30 -13 -13
-14 -19 -5 -22 21 -7 13 -22 -11 -20 -19 2 -23 7 -23 33 1 16 5 36 9 43 6 8 2
12 -12 12 -12 0 -21 5 -21 10 0 6 6 10 13 10 8 0 8 3 2 8 -15 10 -13 114 3
130 6 7 12 19 12 25 0 7 12 25 26 41 l27 28 23 -28 c13 -15 24 -29 24 -30z
m4110 46 c0 -5 -4 -10 -10 -10 -5 0 -10 5 -10 10 0 6 5 10 10 10 6 0 10 -4 10
-10z m-3600 -16 c0 -8 -5 -12 -10 -9 -6 4 -8 11 -5 16 9 14 15 11 15 -7z
m-1480 -24 c0 -5 -4 -10 -9 -10 -6 0 -13 5 -16 10 -3 6 1 10 9 10 9 0 16 -4
16 -10z m44 -16 c3 -8 2 -12 -4 -9 -6 3 -10 10 -10 16 0 14 7 11 14 -7z m136
-9 c10 -12 8 -16 -14 -25 -36 -13 -59 -4 -45 21 12 23 42 25 59 4z m506 -12
c-10 -10 -19 5 -10 18 6 11 8 11 12 0 2 -7 1 -15 -2 -18z m121 5 c-3 -8 -6 -5
-6 6 -1 11 2 17 5 13 3 -3 4 -12 1 -19z m8163 8 c0 -3 -4 -8 -10 -11 -5 -3
-10 -1 -10 4 0 6 5 11 10 11 6 0 10 -2 10 -4z m33 -26 c3 -11 1 -18 -3 -15 -5
3 -7 -9 -5 -27 4 -30 3 -31 -10 -15 -7 11 -12 25 -9 33 2 8 6 21 9 29 6 20 12
19 18 -5z m-8339 -49 c-2 -2 -10 4 -18 12 -12 11 -13 16 -3 20 11 4 29 -23 21
-32z m4390 23 c23 -22 20 -32 -9 -26 -28 5 -27 4 -19 26 8 20 9 20 28 0z
m4113 -4 c1 -16 -1 -17 -12 -7 -7 6 -11 15 -8 20 8 13 19 7 20 -13z m-4167
-27 c-11 -17 -11 -17 -6 0 3 10 6 24 7 30 0 9 2 9 5 0 3 -7 0 -20 -6 -30z
m160 5 c0 -5 -4 -8 -10 -8 -5 0 -10 10 -10 23 0 18 2 19 10 7 5 -8 10 -18 10
-22z m3868 4 c19 -19 37 -66 22 -57 -4 3 -7 -16 -6 -41 1 -44 19 -69 41 -57 5
3 2 -2 -7 -12 -17 -18 -18 -18 -38 0 -11 10 -18 25 -16 32 3 7 1 15 -5 19 -7
4 -6 10 1 19 8 10 7 25 -4 60 -22 64 -20 69 12 37z m-8724 -13 c-8 -14 -24
-10 -24 6 0 9 6 12 15 9 8 -4 12 -10 9 -15z m8796 11 c0 -5 -4 -10 -10 -10 -5
0 -10 5 -10 10 0 6 5 10 10 10 6 0 10 -4 10 -10z m-8602 -17 c2 -8 -5 -13 -17
-13 -12 0 -21 6 -21 16 0 18 31 15 38 -3z m-584 -2 c3 -5 -3 -11 -14 -14 -13
-3 -20 0 -20 9 0 15 26 19 34 5z m546 -22 c0 -5 9 -9 20 -9 15 0 20 -7 20 -25
0 -14 -9 -30 -20 -37 -11 -7 -20 -18 -20 -25 0 -7 -4 -13 -10 -13 -5 0 -10
-12 -10 -27 0 -25 1 -25 19 -9 11 10 25 15 30 11 19 -11 12 -44 -11 -56 -18
-10 -24 -8 -34 7 -7 11 -21 27 -30 36 -11 11 -14 25 -10 41 4 16 1 29 -9 37
-17 14 -9 37 16 45 11 4 17 11 14 16 -4 5 -4 13 0 19 7 11 35 2 35 -11z m8280
11 c0 -5 -7 -10 -16 -10 -8 0 -12 5 -9 10 3 6 10 10 16 10 5 0 9 -4 9 -10z
m-7980 -9 c0 -6 -4 -12 -9 -15 -11 -7 -9 -171 2 -182 4 -4 7 -20 7 -35 0 -38
-36 -50 -58 -18 -21 31 -26 125 -6 133 10 4 14 20 13 57 -2 34 2 54 12 60 18
12 39 11 39 0z m-150 -46 c0 -16 -9 -19 -34 -9 -25 9 -19 24 9 24 16 0 25 -6
25 -15z m4393 -46 c-5 -5 -9 3 -11 19 -1 24 0 25 9 9 7 -11 7 -23 2 -28z
m-4441 9 c17 -17 18 -20 4 -15 -10 4 -22 7 -27 7 -5 0 -9 7 -9 15 0 20 6 19
32 -7z m78 -9 c0 -11 -4 -17 -10 -14 -5 3 -10 15 -10 26 0 11 5 17 10 14 6 -3
10 -15 10 -26z m340 7 c0 -3 -4 -8 -10 -11 -5 -3 -10 -1 -10 4 0 6 5 11 10 11
6 0 10 -2 10 -4z m7895 -16 c8 -13 -5 -13 -25 0 -13 8 -13 10 2 10 9 0 20 -4
23 -10z m-8775 -31 c0 -12 -37 -12 -44 0 -7 11 14 20 32 13 6 -2 12 -8 12 -13z
m456 7 c3 -8 4 -23 1 -33 -4 -16 -6 -15 -12 4 -4 13 -11 20 -16 17 -5 -3 -9 2
-9 10 0 20 29 21 36 2z m8654 -6 c0 -5 -7 -10 -15 -10 -8 0 -15 5 -15 10 0 6
7 10 15 10 8 0 15 -4 15 -10z m-154 -46 c-6 -22 -4 -25 9 -20 11 4 15 2 11 -6
-3 -7 -9 -21 -12 -30 -4 -10 -10 -18 -15 -18 -10 0 -12 60 -3 84 10 26 17 18
10 -10z m-8102 -5 c-8 -14 -31 -11 -37 4 -4 10 2 13 19 9 13 -2 21 -8 18 -13z
m5106 18 c0 -2 -9 -12 -20 -22 -24 -21 -27 -14 -4 9 15 15 24 20 24 13z
m-1094 -34 c-10 -10 -19 5 -10 18 6 11 8 11 12 0 2 -7 1 -15 -2 -18z m-4366
-5 c0 -16 -3 -19 -11 -11 -6 6 -8 16 -5 22 11 17 16 13 16 -11z m4425 12 c8
-13 -5 -13 -25 0 -13 8 -13 10 2 10 9 0 20 -4 23 -10z m52 -16 c-3 -3 -12 -4
-19 -1 -8 3 -5 6 6 6 11 1 17 -2 13 -5z m1089 -71 c-10 -10 -19 5 -10 18 6 11
8 11 12 0 2 -7 1 -15 -2 -18z m2512 15 c7 -7 12 -19 12 -27 0 -14 -1 -14 -10
-1 -9 13 -10 13 -10 0 0 -13 -1 -13 -10 0 -21 32 -7 53 18 28z m-7171 -54 c-3
-3 -12 -4 -19 -1 -8 3 -5 6 6 6 11 1 17 -2 13 -5z"/>
<path d="M3701 9243 c-6 -10 -11 -13 -11 -8 0 6 -4 4 -9 -4 -5 -8 -18 -15 -28
-16 -26 -2 -44 -15 -37 -27 4 -6 1 -14 -6 -18 -17 -10 -3 -31 15 -23 14 5 19
-6 16 -34 -4 -26 44 -13 61 16 15 28 15 30 0 36 -15 6 -16 7 -1 18 9 7 14 17
12 24 -2 6 1 14 6 18 14 8 14 35 1 35 -5 0 -14 -8 -19 -17z"/>
<path d="M3671 9057 c-13 -21 -12 -21 5 -5 10 10 16 20 13 22 -3 3 -11 -5 -18
-17z"/>
<path d="M3530 8980 c0 -5 4 -10 9 -10 6 0 13 5 16 10 3 6 -1 10 -9 10 -9 0
-16 -4 -16 -10z"/>
<path d="M3650 8685 c0 -8 4 -15 9 -15 5 0 11 7 15 15 3 9 0 15 -9 15 -8 0
-15 -7 -15 -15z"/>
<path d="M3517 8238 c-3 -12 -2 -29 3 -37 8 -13 9 -12 10 7 0 12 4 22 10 22 5
0 7 7 4 15 -9 22 -21 18 -27 -7z"/>
<path d="M3711 8114 c0 -11 3 -14 6 -6 3 7 2 16 -1 19 -3 4 -6 -2 -5 -13z"/>
<path d="M3687 8083 c-3 -5 -1 -17 4 -28 7 -19 8 -19 8 2 1 12 7 24 14 26 7 3
6 6 -5 6 -9 1 -19 -2 -21 -6z"/>
<path d="M3906 8211 c-3 -5 -3 -16 0 -25 3 -9 1 -16 -5 -16 -6 0 -11 -7 -11
-16 0 -13 2 -13 14 -2 19 19 29 55 17 62 -5 4 -12 2 -15 -3z"/>
<path d="M5042 7930 c0 -14 2 -19 5 -12 2 6 2 18 0 25 -3 6 -5 1 -5 -13z"/>
<path d="M6450 6180 c0 -5 5 -10 10 -10 6 0 10 5 10 10 0 6 -4 10 -10 10 -5 0
-10 -4 -10 -10z"/>
<path d="M5930 5920 c0 -5 5 -10 11 -10 5 0 7 5 4 10 -3 6 -8 10 -11 10 -2 0
-4 -4 -4 -10z"/>
<path d="M5271 5441 c-8 -5 -9 -11 -3 -15 5 -3 12 1 16 9 6 17 6 18 -13 6z"/>
<path d="M5327 5370 c11 -42 83 -94 83 -60 0 14 -51 65 -71 73 -13 4 -16 1
-12 -13z"/>
<path d="M4083 5282 c-7 -5 -9 -13 -4 -21 7 -11 11 -9 20 8 12 21 6 27 -16 13z"/>
<path d="M4050 5223 c0 -22 2 -25 10 -13 13 20 13 40 0 40 -5 0 -10 -12 -10
-27z"/>
<path d="M4020 5185 c0 -8 4 -15 10 -15 5 0 7 7 4 15 -4 8 -8 15 -10 15 -2 0
-4 -7 -4 -15z"/>
<path d="M3966 5114 c-9 -22 -8 -26 6 -22 13 5 20 38 8 38 -4 0 -11 -7 -14
-16z"/>
<path d="M5570 5090 c0 -5 5 -10 11 -10 5 0 7 5 4 10 -3 6 -8 10 -11 10 -2 0
-4 -4 -4 -10z"/>
<path d="M5610 5072 c0 -5 7 -13 16 -16 10 -4 14 -1 12 6 -5 15 -28 23 -28 10z"/>
<path d="M5090 5033 c-30 -7 -72 -22 -93 -33 -22 -11 -44 -20 -51 -20 -7 0
-25 -13 -41 -30 -16 -16 -33 -30 -39 -30 -5 0 -21 -14 -35 -30 -18 -21 -37
-32 -61 -34 -45 -4 -118 -16 -150 -23 -24 -6 -23 -6 10 -14 19 -4 42 -3 52 2
9 5 46 10 82 12 53 2 66 5 70 21 3 12 9 15 18 10 23 -15 48 -14 48 0 0 17 35
31 51 20 8 -5 7 -9 -2 -14 -10 -7 -10 -11 0 -24 15 -18 75 -13 96 8 8 7 25 11
38 9 13 -3 28 2 35 10 10 12 8 13 -13 9 -20 -3 -24 -1 -19 11 3 8 0 18 -5 22
-20 12 0 25 38 25 29 0 42 6 61 30 14 16 31 29 38 30 17 0 62 30 62 41 0 13
-128 8 -190 -8z m-90 -153 c0 -5 -5 -10 -11 -10 -5 0 -7 5 -4 10 3 6 8 10 11
10 2 0 4 -4 4 -10z"/>
<path d="M3911 5023 c-1 -14 -7 -23 -17 -23 -8 0 -20 -13 -25 -30 -6 -16 -15
-28 -19 -25 -4 3 -15 -11 -24 -30 -10 -20 -21 -33 -27 -30 -5 4 -13 -4 -18
-17 -5 -13 -20 -34 -33 -48 -14 -14 -23 -31 -20 -38 2 -6 -1 -12 -7 -12 -6 0
-11 -7 -11 -15 0 -8 -9 -24 -19 -34 -11 -11 -24 -29 -31 -40 -6 -12 -17 -21
-25 -21 -8 0 -16 -4 -16 -10 -1 -5 -2 -16 -3 -22 -1 -7 -12 -12 -24 -11 -26 3
-42 -25 -22 -37 9 -6 10 -12 1 -26 -10 -18 -10 -18 -11 4 0 12 -4 22 -10 22
-5 0 -10 -4 -10 -10 0 -5 -7 -10 -16 -10 -25 0 -13 -44 13 -48 31 -5 41 -46
18 -72 -18 -19 -17 -20 13 -20 18 0 32 -4 32 -9 0 -5 9 -13 21 -16 12 -4 30
-16 40 -26 10 -10 28 -19 39 -19 13 0 20 -7 20 -19 0 -11 9 -23 20 -26 11 -3
20 -10 20 -14 0 -5 11 -6 25 -3 25 4 31 22 26 80 -1 12 3 22 9 22 5 0 10 -10
10 -23 0 -15 6 -24 15 -24 10 0 13 6 9 19 -3 10 -1 18 5 18 6 0 11 -5 11 -11
0 -5 14 -15 30 -20 17 -6 30 -15 30 -20 0 -5 9 -9 20 -9 11 0 20 -3 20 -8 0
-4 16 -16 35 -26 19 -11 35 -23 35 -28 0 -4 5 -8 11 -8 7 0 18 -8 25 -17 11
-15 16 -16 33 -5 27 16 31 15 31 -4 0 -11 6 -14 20 -9 30 10 159 -14 201 -36
20 -10 52 -19 70 -18 19 0 28 3 22 6 -7 2 -13 10 -13 17 0 7 -9 21 -20 31 -11
10 -20 24 -20 31 0 23 -20 26 -38 5 -9 -11 -28 -23 -42 -26 -22 -5 -28 0 -49
45 -19 38 -29 49 -43 45 -12 -5 -24 5 -43 34 -35 57 -34 72 7 60 18 -5 53 -9
78 -9 25 0 55 -7 67 -15 17 -12 27 -13 46 -4 19 9 36 8 73 -3 57 -16 276 -17
444 -1 60 6 109 7 114 2 6 -5 19 0 32 12 29 27 124 50 148 37 13 -8 24 -4 43
14 20 19 36 23 88 24 56 1 66 4 96 32 60 56 76 35 47 -60 -12 -42 -36 -55 -69
-38 -26 15 -35 6 -44 -42 -7 -36 -6 -37 29 -43 27 -6 41 -3 60 12 33 26 91 20
76 -7 -13 -25 -13 -27 6 -34 12 -5 15 -2 11 13 -3 13 3 22 19 30 14 6 24 19
24 31 0 12 7 20 18 20 9 0 34 18 56 40 21 22 45 40 52 40 7 0 19 10 25 23 17
31 31 38 48 24 11 -10 13 -8 7 9 -8 26 17 40 34 18 15 -17 70 -19 71 -1 2 34
10 52 33 74 14 13 26 31 26 39 0 8 5 12 10 9 6 -3 15 -3 22 1 8 5 6 11 -7 20
-10 7 -15 20 -12 28 3 8 1 16 -6 19 -8 2 -8 5 1 11 7 4 12 2 12 -3 0 -17 40
-13 46 4 4 8 1 21 -5 29 -6 7 -9 22 -5 32 4 14 3 15 -4 5 -7 -9 -11 -10 -17
-2 -5 9 -10 9 -20 1 -10 -8 -14 -4 -19 16 -7 28 -42 63 -63 64 -7 0 -13 6 -13
14 0 16 -34 31 -50 21 -6 -3 -7 1 -4 9 5 12 0 16 -20 16 -15 0 -25 5 -24 13 2
7 -6 11 -19 10 -15 -2 -23 3 -23 12 0 8 -5 15 -11 15 -6 0 -9 -7 -5 -15 7 -19
-11 -20 -29 -1 -12 12 -12 15 2 20 12 5 13 10 6 17 -8 8 -17 5 -33 -11 -15
-15 -19 -25 -12 -32 7 -8 6 -15 -4 -25 -15 -15 -10 -38 7 -28 8 6 14 -17 10
-39 -1 -5 5 -6 14 -2 12 4 15 1 11 -12 -6 -19 7 -45 20 -40 5 1 9 -12 10 -29
1 -21 -3 -33 -11 -33 -7 0 -16 -19 -21 -42 -7 -31 -15 -44 -29 -47 -11 -2 -23
-7 -26 -12 -5 -9 -46 -15 -274 -39 -55 -6 -113 -13 -130 -15 -16 -2 -64 -7
-105 -11 -41 -4 -121 -22 -178 -40 -57 -19 -112 -34 -123 -34 -11 0 -28 -4
-38 -9 -10 -6 -46 -6 -93 1 -42 6 -85 7 -95 3 -31 -13 -64 -12 -59 2 4 10 -2
12 -22 7 -35 -9 -41 -14 -14 -14 25 0 26 -4 12 -31 -8 -14 -21 -19 -55 -19
-38 0 -44 3 -42 20 1 11 7 20 14 20 14 0 18 16 5 24 -13 8 -33 -10 -35 -31 -1
-23 -27 -20 -27 3 0 16 -16 19 -25 4 -9 -14 -51 -12 -75 3 -17 10 -22 9 -29
-2 -6 -10 -19 -11 -52 -5 -50 9 -205 7 -221 -2 -14 -9 -109 38 -105 51 2 5 -5
19 -15 30 -11 12 -18 29 -15 43 4 23 -8 31 -16 10 -2 -7 -7 -10 -11 -6 -4 3
-3 16 3 27 7 11 9 32 5 46 -4 18 -2 25 9 25 16 0 27 20 27 51 0 10 4 19 9 19
5 0 11 12 14 28 15 74 23 96 31 84 6 -9 13 -3 27 23 19 35 19 36 0 78 -15 32
-20 37 -20 20z m2089 -283 c0 -5 -2 -10 -4 -10 -3 0 -8 5 -11 10 -3 6 -1 10 4
10 6 0 11 -4 11 -10z m-2270 -192 c0 -41 3 -51 20 -55 11 -3 20 -13 20 -23 0
-18 -47 -56 -58 -46 -3 3 0 6 6 6 7 0 12 5 12 10 0 6 -7 10 -15 10 -8 0 -16 5
-16 10 -1 6 -2 14 -3 19 0 5 -4 13 -8 17 -4 4 -5 18 -1 32 4 17 2 23 -6 18
-20 -13 -12 22 11 43 29 28 38 18 38 -41z m817 -64 c-3 -3 -12 -4 -19 -1 -8 3
-5 6 6 6 11 1 17 -2 13 -5z m-747 -24 c0 -5 -5 -10 -11 -10 -5 0 -7 5 -4 10 3
6 8 10 11 10 2 0 4 -4 4 -10z m-10 -28 c0 -13 -12 -22 -22 -16 -10 6 -1 24 13
24 5 0 9 -4 9 -8z"/>
<path d="M6379 5003 c-2 -55 -5 -79 -13 -91 -5 -8 13 -22 30 -22 2 0 13 18 24
39 l20 40 -23 35 c-28 45 -37 45 -38 -1z"/>
<path d="M6470 4964 c0 -8 5 -12 10 -9 6 4 8 11 5 16 -9 14 -15 11 -15 -7z"/>
<path d="M4236 4948 c-26 -14 -19 -26 32 -58 42 -26 48 -28 59 -13 7 8 19 13
27 10 9 -4 15 -1 13 6 -1 7 6 11 15 11 10 -1 16 5 15 17 -1 13 -12 20 -39 24
-65 11 -105 12 -122 3z"/>
<path d="M4410 4921 c0 -10 30 -24 37 -17 3 3 2 9 -2 15 -8 13 -35 15 -35 2z"/>
<path d="M6275 4890 c-19 -8 -19 -9 3 -9 12 -1 22 4 22 9 0 6 -1 10 -2 9 -2 0
-12 -4 -23 -9z"/>
<path d="M4508 4883 c7 -3 16 -2 19 1 4 3 -2 6 -13 5 -11 0 -14 -3 -6 -6z"/>
<path d="M6341 4881 c-8 -6 -9 -11 -3 -15 6 -3 14 -1 17 5 9 14 2 20 -14 10z"/>
<path d="M6254 4859 c-8 -14 11 -33 25 -25 11 7 4 36 -9 36 -5 0 -12 -5 -16
-11z"/>
<path d="M4850 4823 c0 -13 6 -23 13 -23 17 0 56 29 40 30 -6 0 -15 -5 -18
-11 -5 -6 -12 -4 -21 8 -13 17 -13 17 -14 -4z"/>
<path d="M6080 4830 c0 -5 5 -10 10 -10 6 0 10 5 10 10 0 6 -4 10 -10 10 -5 0
-10 -4 -10 -10z"/>
<path d="M5086 4815 c-3 -8 -1 -15 4 -15 6 0 10 7 10 15 0 8 -2 15 -4 15 -2 0
-6 -7 -10 -15z"/>
<path d="M5117 4811 c-4 -17 -3 -21 5 -13 5 5 8 16 6 23 -3 8 -7 3 -11 -10z"/>
<path d="M6305 4811 c-3 -5 -1 -12 5 -16 5 -3 10 1 10 9 0 18 -6 21 -15 7z"/>
<path d="M5036 4785 c4 -8 11 -15 16 -15 6 0 5 6 -2 15 -7 8 -14 15 -16 15 -2
0 -1 -7 2 -15z"/>
<path d="M4735 4780 c-3 -5 -28 -10 -56 -10 -27 0 -49 -4 -49 -9 0 -15 -40
-24 -54 -11 -11 8 -18 7 -30 -5 -9 -9 -21 -13 -26 -10 -6 4 -17 1 -25 -5 -11
-9 -15 -9 -15 -1 0 16 -87 14 -93 -1 -3 -9 -13 -4 -28 14 -23 26 -25 27 -47 9
-19 -14 -22 -23 -16 -45 6 -26 10 -27 53 -25 70 4 91 0 91 -15 0 -7 10 -16 23
-19 12 -2 30 -8 40 -12 13 -6 16 -4 11 9 -3 9 -12 16 -20 16 -8 0 -14 5 -14
10 0 13 17 13 25 0 5 -8 11 -7 21 1 20 17 30 3 13 -18 -12 -15 -12 -16 4 -10
9 3 17 2 17 -3 0 -5 13 -5 30 0 19 5 28 5 25 -1 -4 -5 1 -9 9 -9 9 0 16 -7 16
-16 0 -13 6 -15 28 -10 31 8 42 8 101 0 31 -5 42 -3 37 5 -4 7 1 11 13 11 27
0 52 11 46 20 -3 5 11 18 30 30 40 25 45 34 13 24 -22 -6 -22 -6 -5 13 18 20
21 40 11 67 -8 22 -24 20 -24 -3 0 -14 -6 -17 -25 -13 -14 2 -25 8 -25 12 0 4
-17 6 -37 6 -21 -1 -43 2 -50 7 -6 4 -14 3 -18 -3z m-55 -29 c0 -6 -4 -13 -10
-16 -5 -3 -10 1 -10 9 0 9 5 16 10 16 6 0 10 -4 10 -9z"/>
<path d="M4595 4771 c-3 -5 -1 -12 5 -16 5 -3 10 1 10 9 0 18 -6 21 -15 7z"/>
<path d="M4971 4766 c-7 -8 -19 -12 -27 -9 -8 3 -14 0 -14 -6 0 -7 6 -14 14
-17 9 -3 12 -12 9 -21 -4 -11 -2 -14 5 -9 7 4 12 16 12 26 0 11 8 20 20 22 12
2 21 8 21 13 0 16 -27 17 -40 1z"/>
<path d="M4298 4513 c7 -3 16 -2 19 1 4 3 -2 6 -13 5 -11 0 -14 -3 -6 -6z"/>
<path d="M5220 4300 c0 -55 -61 -88 -143 -78 -29 3 -36 0 -46 -24 -14 -31 -69
-51 -133 -49 -28 1 -40 -4 -48 -19 -10 -18 -8 -20 19 -20 16 0 32 4 35 9 3 5
26 12 51 15 25 4 45 11 45 15 0 5 30 18 68 30 37 13 81 28 97 36 17 7 41 16
55 19 14 3 36 15 50 26 l25 20 -28 25 c-37 33 -47 32 -47 -5z"/>
<path d="M5484 4235 c-4 -8 -11 -15 -18 -15 -6 0 -17 -13 -23 -30 -6 -17 -21
-32 -35 -35 -26 -7 -63 -59 -53 -75 3 -6 0 -10 -7 -10 -7 0 -18 -8 -25 -19 -6
-10 -31 -28 -55 -41 -24 -12 -47 -28 -51 -36 -6 -10 -12 -11 -26 -3 -14 10
-22 7 -44 -15 -14 -14 -35 -26 -47 -26 -11 0 -23 -6 -26 -14 -6 -16 -44 -18
-44 -3 0 5 -6 4 -14 -2 -11 -9 -16 -9 -22 1 -6 9 -10 6 -15 -12 -6 -23 -7 -22
-8 8 -1 37 1 36 -41 18 l-33 -13 32 -19 c17 -10 31 -22 31 -26 0 -11 -24 -10
-36 1 -5 4 -21 11 -36 15 -22 5 -26 3 -22 -9 8 -20 -13 -45 -32 -38 -8 3 -14
0 -14 -7 0 -10 -4 -9 -16 1 -14 11 -13 14 7 24 l21 12 -21 6 c-11 3 -24 1 -27
-4 -3 -6 -12 -5 -21 3 -12 10 -17 9 -27 -3 -16 -22 -46 -31 -61 -19 -13 11
-42 9 -63 -3 -7 -5 -14 -2 -18 7 -3 9 -9 14 -13 12 -9 -6 -137 38 -155 53 -7
6 -19 10 -24 9 -19 -5 -72 36 -79 60 -5 22 -7 22 -22 8 -15 -15 -13 -19 23
-49 21 -18 53 -44 70 -59 17 -15 42 -28 56 -28 20 0 25 -5 26 -25 2 -25 -10
-33 -21 -15 -4 6 -11 8 -16 4 -12 -7 8 -34 26 -34 7 0 18 -7 25 -15 7 -8 27
-15 44 -15 23 0 27 -3 16 -10 -12 -7 -8 -11 17 -16 18 -3 38 -13 44 -20 7 -8
21 -11 35 -8 18 5 24 2 24 -10 0 -21 12 -20 38 4 16 15 22 17 22 6 0 -19 18
-24 65 -19 22 2 58 6 80 7 55 4 57 5 51 15 -4 5 26 9 66 8 79 -1 185 29 180
51 -1 6 2 12 8 12 6 0 10 -4 10 -10 0 -5 4 -10 10 -10 5 0 7 13 3 32 -4 21 -3
29 5 24 6 -4 8 -14 5 -23 -4 -11 -2 -14 8 -11 8 3 13 12 11 22 -2 9 4 16 11
16 22 0 41 27 25 34 -7 3 -3 3 10 0 17 -4 22 -1 22 14 0 14 9 21 31 26 17 3
28 9 26 13 -3 5 10 19 29 33 18 14 34 28 34 33 0 4 9 16 20 27 11 11 20 28 20
38 0 10 5 23 12 30 9 9 9 12 0 12 -16 0 -15 25 1 42 24 24 51 92 38 96 -6 2
-11 8 -11 13 0 6 5 7 10 4 6 -3 10 -1 10 4 0 17 -30 13 -36 -4z m-58 -203 c1
-7 0 -8 -3 -2 -3 8 -9 7 -19 -1 -8 -6 -14 -7 -14 -2 0 24 31 28 36 5z m-6 -26
c0 -3 -4 -8 -10 -11 -5 -3 -10 -1 -10 4 0 6 5 11 10 11 6 0 10 -2 10 -4z
m-490 -156 c0 -5 -9 -10 -20 -10 -11 0 -20 5 -20 10 0 6 9 10 20 10 11 0 20
-4 20 -10z m-407 -27 c-7 -2 -19 -2 -25 0 -7 3 -2 5 12 5 14 0 19 -2 13 -5z"/>
<path d="M4534 4152 c2 -11 13 -18 32 -20 23 -2 26 0 14 8 -39 28 -48 30 -46
12z"/>
<path d="M4673 4133 c-52 -7 -38 -23 18 -23 36 0 49 4 47 13 -5 14 -19 16 -65
10z"/>
<path d="M6034 3959 c-3 -6 -1 -16 5 -22 8 -8 11 -5 11 11 0 24 -5 28 -16 11z"/>
<path d="M4711 3884 c0 -11 3 -14 6 -6 3 7 2 16 -1 19 -3 4 -6 -2 -5 -13z"/>
<path d="M5985 3879 c-10 -15 3 -25 16 -12 7 7 7 13 1 17 -6 3 -14 1 -17 -5z"/>
<path d="M3715 3610 c3 -5 8 -10 11 -10 2 0 4 5 4 10 0 6 -5 10 -11 10 -5 0
-7 -4 -4 -10z"/>
<path d="M3840 3569 c0 -5 5 -7 10 -4 6 3 10 8 10 11 0 2 -4 4 -10 4 -5 0 -10
-5 -10 -11z"/>
<path d="M3621 5704 c0 -11 3 -14 6 -6 3 7 2 16 -1 19 -3 4 -6 -2 -5 -13z"/>
<path d="M3860 9530 c0 -5 7 -10 15 -10 8 0 15 5 15 10 0 6 -7 10 -15 10 -8 0
-15 -4 -15 -10z"/>
<path d="M3699 9474 c-11 -14 -10 -15 11 -12 13 1 25 9 28 16 5 17 -23 15 -39
-4z"/>
<path d="M3185 9119 c-4 -6 -5 -12 -2 -15 2 -3 7 2 10 11 7 17 1 20 -8 4z"/>
<path d="M3113 9076 c-21 -18 -45 -36 -53 -39 -13 -5 -13 -5 0 -6 8 0 35 17
60 39 25 22 42 40 38 40 -5 0 -25 -15 -45 -34z"/>
<path d="M3033 9003 c-15 -5 -17 -23 -4 -23 5 0 11 7 15 15 3 8 4 15 3 14 -1
0 -8 -3 -14 -6z"/>
<path d="M2978 8949 c-13 -13 -14 -19 -5 -19 14 0 37 20 37 32 0 13 -14 8 -32
-13z"/>
<path d="M2730 8629 c0 -5 5 -7 10 -4 6 3 10 8 10 11 0 2 -4 4 -10 4 -5 0 -10
-5 -10 -11z"/>
<path d="M2680 8565 c-8 -9 -8 -15 -2 -15 12 0 26 19 19 26 -2 2 -10 -2 -17
-11z"/>
<path d="M2351 8074 c0 -11 3 -14 6 -6 3 7 2 16 -1 19 -3 4 -6 -2 -5 -13z"/>
<path d="M7317 7407 c-2 -6 4 -20 13 -30 17 -17 17 -17 12 8 -5 29 -18 41 -25
22z"/>
<path d="M1842 6670 c0 -14 2 -19 5 -12 2 6 2 18 0 25 -3 6 -5 1 -5 -13z"/>
<path d="M1830 6631 c0 -5 5 -13 10 -16 6 -3 10 -2 10 4 0 5 -4 13 -10 16 -5
3 -10 2 -10 -4z"/>
<path d="M1797 6494 c-4 -4 -7 -17 -7 -28 1 -19 1 -20 11 -3 11 19 8 43 -4 31z"/>
<path d="M1776 6405 c-3 -9 -6 -22 -5 -28 0 -7 5 -1 10 12 5 13 8 26 5 28 -2
2 -6 -3 -10 -12z"/>
<path d="M7990 4446 c0 -32 15 -42 18 -11 1 13 -3 27 -8 30 -6 3 -10 -5 -10
-19z"/>
<path d="M1691 4174 c0 -11 3 -14 6 -6 3 7 2 16 -1 19 -3 4 -6 -2 -5 -13z"/>
<path d="M1870 3751 c0 -5 5 -13 10 -16 6 -3 10 -2 10 4 0 5 -4 13 -10 16 -5
3 -10 2 -10 -4z"/>
<path d="M8022 3615 c0 -16 2 -22 5 -12 2 9 2 23 0 30 -3 6 -5 -1 -5 -18z"/>
<path d="M8027 3531 c-2 -10 -1 -25 4 -32 6 -10 9 -4 9 19 0 36 -5 42 -13 13z"/>
<path d="M1988 3261 c2 -17 8 -34 13 -37 14 -8 10 30 -4 51 -13 16 -14 15 -9
-14z"/>
<path d="M2215 3054 c4 -27 9 -56 13 -64 6 -16 8 -28 11 -70 1 -17 4 -21 10
-12 4 7 4 34 -1 60 -4 26 -11 64 -14 85 -10 57 -27 58 -19 1z"/>
<path d="M8970 3082 c0 -5 18 -14 41 -21 55 -17 41 -27 -17 -12 -43 11 -75 8
-43 -4 8 -2 52 -18 99 -35 158 -57 254 -90 263 -90 5 0 4 6 -2 13 -6 8 -9 16
-6 19 9 9 -58 36 -120 49 -33 7 -73 19 -90 26 l-30 14 43 -5 c23 -2 42 -3 42
-1 0 3 -164 55 -174 55 -3 0 -6 -4 -6 -8z"/>
<path d="M8638 3063 c-32 -2 -58 -8 -58 -13 0 -6 -16 -10 -36 -10 -21 0 -33 4
-29 10 3 6 -3 10 -15 10 -19 0 -20 -2 -6 -15 8 -8 26 -15 41 -15 15 0 24 -4
20 -10 -3 -5 3 -10 14 -10 12 0 21 7 21 15 0 10 11 15 38 16 20 1 96 3 167 5
150 4 150 4 110 14 -31 8 -164 9 -267 3z"/>
<path d="M8420 3049 c0 -5 5 -7 10 -4 6 3 10 8 10 11 0 2 -4 4 -10 4 -5 0 -10
-5 -10 -11z"/>
<path d="M2167 3029 c4 -13 8 -18 11 -10 2 7 -1 18 -6 23 -8 8 -9 4 -5 -13z"/>
<path d="M2364 2666 c-9 -19 -9 -26 1 -30 11 -4 24 21 25 47 0 16 -16 6 -26
-17z"/>
<path d="M1914 2371 c3 -5 15 -7 26 -4 28 7 25 13 -6 13 -14 0 -23 -4 -20 -9z"/>
<path d="M4450 1870 c0 -5 5 -10 11 -10 5 0 7 5 4 10 -3 6 -8 10 -11 10 -2 0
-4 -4 -4 -10z"/>
<path d="M4460 1839 c0 -6 6 -17 14 -25 8 -7 16 -19 19 -26 2 -7 7 -10 11 -6
9 8 -21 68 -34 68 -6 0 -10 -5 -10 -11z"/>
<path d="M9040 1565 c0 -8 -7 -15 -15 -15 -9 0 -18 -7 -21 -15 -4 -8 -12 -15
-20 -15 -19 0 -18 -16 1 -24 8 -3 15 0 15 7 0 15 48 38 56 26 9 -16 32 -10 30
9 -2 30 -46 56 -46 27z"/>
<path d="M4550 1561 c0 -5 5 -13 10 -16 6 -3 10 -2 10 4 0 5 -4 13 -10 16 -5
3 -10 2 -10 -4z"/>
<path d="M9100 1528 c0 -17 36 -35 47 -24 4 3 0 6 -7 6 -7 0 -19 8 -26 18 -12
16 -13 16 -14 0z"/>
<path d="M4636 1340 c6 -43 46 -120 63 -120 4 0 -3 23 -16 50 -13 28 -21 55
-18 60 3 6 2 10 -3 10 -5 0 -14 10 -20 23 -10 19 -11 15 -6 -23z"/>
<path d="M4520 1352 c0 -5 7 -16 16 -23 14 -12 16 -11 13 5 -4 20 -29 35 -29
18z"/>
<path d="M1050 1050 c0 -5 5 -10 10 -10 6 0 10 5 10 10 0 6 -4 10 -10 10 -5 0
-10 -4 -10 -10z"/>
<path d="M4781 944 c0 -11 3 -14 6 -6 3 7 2 16 -1 19 -3 4 -6 -2 -5 -13z"/>
<path d="M4756 742 c-5 -8 47 -165 61 -185 9 -12 31 -80 58 -179 8 -31 20 -60
25 -63 13 -8 13 -3 -4 64 -8 31 -17 71 -20 89 -2 18 -10 40 -16 48 -7 7 -9 14
-5 14 4 0 3 6 -3 13 -6 7 -8 24 -5 37 4 15 2 21 -4 17 -15 -9 -49 52 -58 102
-7 40 -19 59 -29 43z"/>
<path d="M4830 681 c0 -6 4 -13 10 -16 6 -3 7 1 4 9 -7 18 -14 21 -14 7z"/>
<path d="M546 664 c-9 -23 -8 -24 13 -24 19 0 35 23 24 34 -12 11 -31 6 -37
-10z"/>
<path d="M9526 627 c-11 -8 -15 -17 -10 -20 14 -8 37 8 33 22 -3 8 -10 8 -23
-2z"/>
<path d="M127 463 c-15 -15 -7 -43 13 -43 15 0 20 7 20 25 0 24 -18 34 -33 18z"/>
<path d="M190 441 c0 -6 5 -13 10 -16 6 -3 10 1 10 9 0 9 -4 16 -10 16 -5 0
-10 -4 -10 -9z"/>
<path d="M20 319 c0 -5 5 -7 10 -4 6 3 10 8 10 11 0 2 -4 4 -10 4 -5 0 -10 -5
-10 -11z"/>
<path d="M9584 69 c-3 -6 -1 -16 5 -22 8 -8 11 -5 11 11 0 24 -5 28 -16 11z"/>
<path d="M530 15 c-11 -13 -7 -15 26 -14 22 1 31 3 22 6 -10 2 -18 9 -18 14 0
14 -16 11 -30 -6z"/>
<path d="M9357 16 c-4 -10 -1 -13 8 -9 8 3 12 9 9 14 -7 12 -11 11 -17 -5z"/>
</g>
</svg>
